<svg xmlns="http://www.w3.org/2000/svg" xmlns:xlink="http://www.w3.org/1999/xlink" preserveAspectRatio="xMidYMid" width="22" height="20" viewBox="0 0 22 20">
  <defs>
    <style>

      .cls-3 {
        fill: #ffffff;
      }
    </style>
  </defs>
  <g id="basketsvg">
    <path d="M21.539,3.418 C21.143,2.951 20.542,2.691 19.919,2.691 C19.919,2.691 6.399,2.691 6.399,2.691 C6.012,2.691 5.644,2.797 5.325,2.986 C5.325,2.986 4.634,0.647 4.634,0.647 C4.520,0.264 4.161,-0.001 3.752,-0.001 C3.752,-0.001 2.701,-0.001 2.701,-0.001 C2.701,-0.001 0.696,-0.001 0.696,-0.001 C0.314,-0.001 -0.000,0.299 -0.000,0.673 C-0.000,0.673 -0.000,0.744 -0.000,0.744 C-0.000,1.114 0.309,1.418 0.696,1.418 C0.696,1.418 3.324,1.418 3.324,1.418 C3.324,1.418 4.666,6.012 4.666,6.012 C4.666,6.012 6.512,12.351 6.512,12.351 C5.462,12.606 4.684,13.527 4.684,14.620 C4.684,15.857 5.680,16.875 6.940,16.954 C6.835,17.245 6.785,17.566 6.812,17.897 C6.903,19.016 7.845,19.919 9.000,19.993 C10.378,20.086 11.529,19.025 11.529,17.712 C11.529,17.447 11.483,17.196 11.397,16.958 C11.397,16.958 14.162,16.958 14.162,16.958 C14.048,17.271 14.003,17.619 14.044,17.976 C14.171,19.060 15.094,19.914 16.222,19.993 C17.600,20.086 18.755,19.029 18.755,17.712 C18.755,16.439 17.664,15.421 16.354,15.421 C16.354,15.421 7.117,15.421 7.117,15.421 C6.667,15.421 6.285,15.082 6.267,14.650 C6.249,14.192 6.626,13.818 7.094,13.818 C7.094,13.818 8.482,13.818 8.482,13.818 C8.482,13.818 15.999,13.818 15.999,13.818 C15.999,13.818 18.114,13.818 18.114,13.818 C19.051,13.818 19.869,13.197 20.097,12.316 C20.097,12.316 21.934,5.153 21.934,5.153 C22.093,4.537 21.948,3.907 21.539,3.418 ZM16.395,16.954 C16.822,16.954 17.173,17.293 17.173,17.707 C17.173,18.121 16.822,18.460 16.395,18.460 C15.967,18.460 15.617,18.121 15.617,17.707 C15.617,17.293 15.963,16.954 16.395,16.954 ZM9.168,16.954 C9.596,16.954 9.946,17.293 9.946,17.707 C9.946,18.121 9.596,18.460 9.168,18.460 C8.741,18.460 8.391,18.121 8.391,17.707 C8.391,17.293 8.736,16.954 9.168,16.954 ZM6.312,6.003 C6.312,6.003 5.957,4.792 5.957,4.792 C5.903,4.607 5.980,4.471 6.035,4.404 C6.085,4.338 6.203,4.228 6.399,4.228 C6.399,4.228 7.881,4.228 7.881,4.228 C7.881,4.228 8.286,6.008 8.286,6.008 C8.286,6.008 6.312,6.008 6.312,6.008 C6.312,6.008 6.312,6.003 6.312,6.003 C6.312,6.003 6.312,6.003 6.312,6.003 ZM6.758,7.536 C6.758,7.536 8.632,7.536 8.632,7.536 C8.632,7.536 9.005,9.184 9.005,9.184 C9.005,9.184 7.235,9.184 7.235,9.184 C7.235,9.184 6.758,7.536 6.758,7.536 ZM8.482,12.276 C8.277,12.276 8.095,12.144 8.040,11.950 C8.040,11.950 7.681,10.717 7.681,10.717 C7.681,10.717 9.350,10.717 9.350,10.717 C9.350,10.717 9.705,12.272 9.705,12.272 C9.705,12.272 8.482,12.272 8.482,12.272 C8.482,12.272 8.482,12.276 8.482,12.276 C8.482,12.276 8.482,12.276 8.482,12.276 ZM12.443,12.276 C12.443,12.276 11.324,12.276 11.324,12.276 C11.324,12.276 10.969,10.721 10.969,10.721 C10.969,10.721 12.438,10.721 12.438,10.721 C12.438,10.721 12.438,12.276 12.438,12.276 C12.438,12.276 12.443,12.276 12.443,12.276 ZM12.443,9.184 C12.443,9.184 10.624,9.184 10.624,9.184 C10.624,9.184 10.251,7.536 10.251,7.536 C10.251,7.536 12.443,7.536 12.443,7.536 C12.443,7.536 12.443,9.184 12.443,9.184 ZM12.443,6.003 C12.443,6.003 9.905,6.003 9.905,6.003 C9.905,6.003 9.500,4.224 9.500,4.224 C9.500,4.224 12.443,4.224 12.443,4.224 C12.443,4.224 12.443,6.003 12.443,6.003 ZM15.281,12.276 C15.281,12.276 14.030,12.276 14.030,12.276 C14.030,12.276 14.030,10.721 14.030,10.721 C14.030,10.721 15.617,10.721 15.617,10.721 C15.617,10.721 15.281,12.276 15.281,12.276 ZM15.954,9.184 C15.954,9.184 14.030,9.184 14.030,9.184 C14.030,9.184 14.030,7.536 14.030,7.536 C14.030,7.536 16.313,7.536 16.313,7.536 C16.313,7.536 15.954,9.184 15.954,9.184 ZM14.030,6.003 C14.030,6.003 14.030,4.224 14.030,4.224 C14.030,4.224 17.032,4.224 17.032,4.224 C17.032,4.224 16.645,6.003 16.645,6.003 C16.645,6.003 14.030,6.003 14.030,6.003 ZM18.564,11.941 C18.514,12.140 18.332,12.280 18.118,12.280 C18.118,12.280 16.900,12.280 16.900,12.280 C16.900,12.280 17.241,10.726 17.241,10.726 C17.241,10.726 18.878,10.726 18.878,10.726 C18.878,10.726 18.564,11.941 18.564,11.941 ZM19.269,9.184 C19.269,9.184 17.573,9.184 17.573,9.184 C17.573,9.184 17.932,7.536 17.932,7.536 C17.932,7.536 19.692,7.536 19.692,7.536 C19.692,7.536 19.269,9.184 19.269,9.184 ZM20.397,4.774 C20.397,4.774 20.083,5.999 20.083,5.999 C20.083,5.999 18.264,5.999 18.264,5.999 C18.264,5.999 18.651,4.219 18.651,4.219 C18.651,4.219 19.951,4.219 19.951,4.219 C20.147,4.219 20.261,4.325 20.311,4.391 C20.365,4.457 20.447,4.594 20.397,4.774 Z" id="path-1" class="cls-3" fill-rule="evenodd"/>
  </g>
</svg>
