<svg xmlns="http://www.w3.org/2000/svg" xmlns:xlink="http://www.w3.org/1999/xlink" preserveAspectRatio="xMidYMid" width="19" height="18" viewBox="0 0 19 18">
  <defs>
    <style>

      .cls-2 {
        fill: #000000;
      }
    </style>
  </defs>
  <path d="M17.991,10.142 C17.921,10.633 17.505,10.999 17.014,10.999 C17.014,10.999 5.844,10.999 5.844,10.999 C5.844,10.999 6.008,11.999 6.008,11.999 C6.008,11.999 16.027,11.999 16.027,11.999 C16.572,11.999 17.014,12.446 17.014,12.999 C17.014,13.552 16.572,13.999 16.027,13.999 C16.027,13.999 5.172,13.999 5.171,13.999 C5.044,13.999 4.924,13.972 4.809,13.924 C4.768,13.909 4.736,13.880 4.699,13.858 C4.632,13.822 4.565,13.784 4.508,13.730 C4.472,13.695 4.445,13.656 4.414,13.618 C4.370,13.560 4.328,13.504 4.296,13.439 C4.271,13.390 4.259,13.340 4.243,13.287 C4.229,13.245 4.206,13.208 4.198,13.163 C4.198,13.163 2.363,2.000 2.363,2.000 C2.363,2.000 0.978,2.000 0.978,2.000 C0.433,2.000 -0.008,1.552 -0.008,0.999 C-0.008,0.446 0.433,-0.001 0.978,-0.001 C0.978,-0.001 3.199,-0.001 3.199,-0.001 C3.681,-0.001 4.093,0.353 4.171,0.835 C4.171,0.835 4.364,2.000 4.364,2.000 C4.364,2.000 18.000,2.000 18.000,2.000 C18.287,2.000 18.557,2.125 18.746,2.345 C18.933,2.562 19.018,2.853 18.977,3.141 C18.977,3.141 17.991,10.142 17.991,10.142 ZM13.066,8.999 C13.066,8.999 16.158,8.999 16.158,8.999 C16.158,8.999 16.439,6.999 16.439,6.999 C16.439,6.999 13.066,6.999 13.066,6.999 C13.066,6.999 13.066,8.999 13.066,8.999 ZM8.133,3.999 C8.133,3.999 4.693,3.999 4.693,3.999 C4.693,3.999 5.026,6.029 5.026,6.029 C5.072,6.014 5.120,5.999 5.172,5.999 C5.172,5.999 8.133,5.999 8.133,5.999 C8.133,5.999 8.133,3.999 8.133,3.999 ZM8.133,6.999 C8.133,6.999 5.186,6.999 5.186,6.999 C5.186,6.999 5.515,8.999 5.515,8.999 C5.515,8.999 8.133,8.999 8.133,8.999 C8.133,8.999 8.133,6.999 8.133,6.999 ZM12.080,3.999 C12.080,3.999 9.119,3.999 9.119,3.999 C9.119,3.999 9.119,5.999 9.119,5.999 C9.119,5.999 12.080,5.999 12.080,5.999 C12.080,5.999 12.080,3.999 12.080,3.999 ZM12.080,6.999 C12.080,6.999 9.119,6.999 9.119,6.999 C9.119,6.999 9.119,8.999 9.119,8.999 C9.119,8.999 12.080,8.999 12.080,8.999 C12.080,8.999 12.080,6.999 12.080,6.999 ZM13.066,3.999 C13.066,3.999 13.066,5.999 13.066,5.999 C13.066,5.999 16.582,5.999 16.582,5.999 C16.582,5.999 16.863,3.999 16.863,3.999 C16.863,3.999 13.066,3.999 13.066,3.999 ZM6.652,14.999 C7.470,14.999 8.133,15.671 8.133,16.499 C8.133,17.327 7.470,17.999 6.652,17.999 C5.835,17.999 5.172,17.327 5.172,16.499 C5.172,15.671 5.835,14.999 6.652,14.999 ZM15.533,14.999 C16.351,14.999 17.014,15.671 17.014,16.499 C17.014,17.327 16.351,17.999 15.533,17.999 C14.716,17.999 14.053,17.327 14.053,16.499 C14.053,15.671 14.716,14.999 15.533,14.999 Z" id="path-1" class="cls-2" fill-rule="evenodd"/>
</svg>
