<svg xmlns="http://www.w3.org/2000/svg" xmlns:xlink="http://www.w3.org/1999/xlink" preserveAspectRatio="xMidYMid" width="38" height="38" viewBox="0 0 38 38">
  <defs>
    <style>

      .cls-3 {
        fill: #ffffff;
        opacity: 0.3;
      }

      .cls-4 {
        fill: #ffffff;
      }
    </style>
  </defs>
  <g id="facebooksvg">
    <rect id="rect-1" class="cls-3" width="38" height="38" rx="19" ry="19"/>
    <path d="M23.327,10.363 C23.327,10.363 21.082,10.359 21.082,10.359 C18.560,10.359 16.930,12.029 16.930,14.612 C16.930,14.612 16.930,16.573 16.930,16.573 C16.930,16.573 14.673,16.573 14.673,16.573 C14.478,16.573 14.320,16.731 14.320,16.926 C14.320,16.926 14.320,19.767 14.320,19.767 C14.320,19.961 14.478,20.119 14.673,20.119 C14.673,20.119 16.930,20.119 16.930,20.119 C16.930,20.119 16.930,27.288 16.930,27.288 C16.930,27.482 17.088,27.640 17.283,27.640 C17.283,27.640 20.228,27.640 20.228,27.640 C20.423,27.640 20.581,27.482 20.581,27.288 C20.581,27.288 20.581,20.119 20.581,20.119 C20.581,20.119 23.220,20.119 23.220,20.119 C23.415,20.119 23.573,19.961 23.573,19.767 C23.573,19.767 23.574,16.926 23.574,16.926 C23.574,16.832 23.537,16.742 23.471,16.676 C23.405,16.610 23.315,16.573 23.221,16.573 C23.221,16.573 20.581,16.573 20.581,16.573 C20.581,16.573 20.581,14.911 20.581,14.911 C20.581,14.112 20.772,13.706 21.815,13.706 C21.815,13.706 23.327,13.706 23.327,13.706 C23.522,13.706 23.680,13.548 23.680,13.353 C23.680,13.353 23.680,10.715 23.680,10.715 C23.680,10.521 23.522,10.363 23.327,10.363 Z" id="path-1" class="cls-4" fill-rule="evenodd"/>
  </g>
</svg>
