<svg xmlns="http://www.w3.org/2000/svg" xmlns:xlink="http://www.w3.org/1999/xlink" preserveAspectRatio="xMidYMid" width="9" height="12" viewBox="0 0 9 12">
  <defs>
    <style>

      .cls-2 {
        fill: #ffffff;
      }
    </style>
  </defs>
  <path d="M8.361,4.845 C8.361,4.845 8.133,4.845 8.133,4.845 C8.133,4.845 8.133,3.751 8.133,3.751 C8.133,1.727 6.566,0.036 4.607,-0.001 C4.553,-0.002 4.446,-0.002 4.393,-0.001 C2.434,0.036 0.866,1.727 0.866,3.751 C0.866,3.751 0.866,4.845 0.866,4.845 C0.866,4.845 0.638,4.845 0.638,4.845 C0.286,4.845 -0.000,5.217 -0.000,5.676 C-0.000,5.676 -0.000,11.165 -0.000,11.165 C-0.000,11.624 0.286,11.999 0.638,11.999 C0.638,11.999 8.361,11.999 8.361,11.999 C8.713,11.999 9.000,11.624 9.000,11.165 C9.000,11.165 9.000,5.676 9.000,5.676 C9.000,5.217 8.713,4.845 8.361,4.845 ZM5.223,8.415 C5.223,8.415 5.223,10.073 5.223,10.073 C5.223,10.263 5.068,10.424 4.883,10.424 C4.883,10.424 4.117,10.424 4.117,10.424 C3.931,10.424 3.776,10.263 3.776,10.073 C3.776,10.073 3.776,8.415 3.776,8.415 C3.596,8.234 3.492,7.982 3.492,7.705 C3.492,7.179 3.888,6.727 4.393,6.706 C4.446,6.704 4.553,6.704 4.607,6.706 C5.111,6.727 5.508,7.179 5.508,7.705 C5.508,7.982 5.403,8.234 5.223,8.415 ZM6.629,4.845 C6.629,4.845 4.607,4.845 4.607,4.845 C4.607,4.845 4.393,4.845 4.393,4.845 C4.393,4.845 2.370,4.845 2.370,4.845 C2.370,4.845 2.370,3.751 2.370,3.751 C2.370,2.545 3.326,1.548 4.500,1.548 C5.673,1.548 6.629,2.545 6.629,3.751 C6.629,3.751 6.629,4.845 6.629,4.845 Z" id="path-1" class="cls-2" fill-rule="evenodd"/>
</svg>
