<svg xmlns="http://www.w3.org/2000/svg" xmlns:xlink="http://www.w3.org/1999/xlink" preserveAspectRatio="xMidYMid" width="16" height="17" viewBox="0 0 16 17">
  <defs>
    <style>

      .cls-2 {
        fill: #cfcfcf;
      }
    </style>
  </defs>
  <path d="M15.750,15.483 C15.750,15.483 11.807,11.276 11.807,11.276 C12.821,10.039 13.376,8.483 13.376,6.863 C13.376,3.078 10.376,-0.001 6.687,-0.001 C2.999,-0.001 -0.002,3.078 -0.002,6.863 C-0.002,10.648 2.999,13.727 6.687,13.727 C8.072,13.727 9.391,13.298 10.519,12.485 C10.519,12.485 14.493,16.724 14.493,16.724 C14.659,16.901 14.882,16.999 15.121,16.999 C15.348,16.999 15.563,16.910 15.726,16.749 C16.073,16.407 16.084,15.839 15.750,15.483 ZM6.687,1.790 C9.414,1.790 11.631,4.065 11.631,6.863 C11.631,9.660 9.414,11.936 6.687,11.936 C3.961,11.936 1.743,9.660 1.743,6.863 C1.743,4.065 3.961,1.790 6.687,1.790 Z" id="path-1" class="cls-2" fill-rule="evenodd"/>
</svg>
