<svg xmlns="http://www.w3.org/2000/svg" xmlns:xlink="http://www.w3.org/1999/xlink" preserveAspectRatio="xMidYMid" width="13" height="13" viewBox="0 0 13 13">
  <defs>
    <style>

      .cls-2 {
        fill: #ffffff;
      }
    </style>
  </defs>
  <path d="M0.161,10.742 C0.167,10.661 0.204,10.583 0.264,10.525 C0.264,10.525 5.446,5.405 5.446,5.405 C5.242,4.931 5.134,4.417 5.134,3.886 C5.134,2.848 5.544,1.871 6.286,1.137 C7.028,0.403 8.016,-0.001 9.067,-0.001 C10.119,-0.001 11.105,0.403 11.849,1.137 C13.383,2.653 13.384,5.118 11.849,6.633 C11.105,7.368 10.119,7.773 9.068,7.773 C8.530,7.773 8.011,7.666 7.530,7.464 C7.530,7.464 5.827,9.147 5.827,9.147 C5.756,9.216 5.663,9.253 5.562,9.250 C5.562,9.250 4.635,9.218 4.635,9.218 C4.635,9.218 4.665,10.137 4.665,10.137 C4.668,10.234 4.632,10.328 4.561,10.397 C4.493,10.466 4.396,10.503 4.299,10.500 C4.299,10.500 3.368,10.468 3.368,10.468 C3.368,10.468 3.401,11.386 3.401,11.386 C3.404,11.483 3.366,11.578 3.298,11.646 C3.227,11.715 3.144,11.752 3.033,11.749 C3.033,11.749 2.104,11.718 2.104,11.718 C2.104,11.718 2.135,12.636 2.135,12.636 C2.140,12.738 2.097,12.836 2.023,12.905 C1.955,12.967 1.871,12.999 1.781,12.999 C1.768,12.999 1.755,12.999 1.742,12.998 C1.742,12.998 0.318,12.841 0.318,12.841 C0.125,12.821 -0.015,12.651 0.002,12.460 C0.002,12.460 0.161,10.742 0.161,10.742 ZM9.542,3.416 C9.980,3.848 10.687,3.848 11.124,3.416 C11.561,2.984 11.561,2.286 11.124,1.854 C10.687,1.423 9.980,1.422 9.542,1.854 C9.106,2.286 9.106,2.985 9.542,3.416 ZM1.377,10.858 C1.429,10.910 1.498,10.936 1.566,10.936 C1.634,10.936 1.704,10.910 1.755,10.858 C1.755,10.858 6.165,6.501 6.165,6.501 C6.042,6.370 5.930,6.233 5.829,6.088 C5.829,6.088 1.377,10.486 1.377,10.486 C1.273,10.588 1.273,10.756 1.377,10.858 Z" id="path-1" class="cls-2" fill-rule="evenodd"/>
</svg>
