<svg xmlns="http://www.w3.org/2000/svg" xmlns:xlink="http://www.w3.org/1999/xlink" preserveAspectRatio="xMidYMid" width="38" height="38" viewBox="0 0 38 38">
  <defs>
    <style>

      .cls-3 {
        fill: #ffffff;
        opacity: 0.3;
      }

      .cls-4 {
        fill: #ffffff;
      }
    </style>
  </defs>
  <g id="vksvg">
    <rect id="rect-1" class="cls-3" width="38" height="38" rx="19" ry="19"/>
    <path d="M26.054,22.004 C26.770,22.704 27.527,23.362 28.169,24.132 C28.453,24.474 28.722,24.827 28.928,25.224 C29.219,25.789 28.955,26.410 28.449,26.444 C28.449,26.444 25.302,26.442 25.302,26.442 C24.490,26.510 23.843,26.183 23.299,25.628 C22.863,25.184 22.460,24.712 22.041,24.253 C21.869,24.066 21.689,23.889 21.474,23.750 C21.045,23.471 20.672,23.557 20.426,24.005 C20.177,24.460 20.120,24.965 20.095,25.473 C20.062,26.213 19.838,26.408 19.093,26.442 C17.503,26.517 15.993,26.277 14.591,25.474 C13.354,24.767 12.395,23.768 11.561,22.638 C9.936,20.436 8.692,18.017 7.574,15.530 C7.322,14.970 7.506,14.669 8.124,14.659 C9.151,14.639 10.177,14.640 11.205,14.657 C11.622,14.664 11.898,14.903 12.059,15.297 C12.615,16.663 13.294,17.962 14.147,19.166 C14.375,19.487 14.606,19.807 14.936,20.033 C15.301,20.283 15.579,20.200 15.750,19.793 C15.859,19.536 15.907,19.258 15.932,18.982 C16.013,18.032 16.024,17.084 15.881,16.138 C15.793,15.547 15.461,15.165 14.871,15.053 C14.571,14.996 14.615,14.884 14.761,14.713 C15.014,14.417 15.252,14.232 15.726,14.232 C15.726,14.232 19.282,14.232 19.282,14.232 C19.842,14.343 19.966,14.594 20.043,15.158 C20.043,15.158 20.046,19.108 20.046,19.108 C20.040,19.326 20.155,19.973 20.548,20.117 C20.862,20.220 21.069,19.968 21.258,19.769 C22.110,18.865 22.717,17.797 23.260,16.692 C23.501,16.205 23.708,15.700 23.909,15.196 C24.058,14.821 24.291,14.637 24.713,14.645 C24.713,14.645 28.136,14.648 28.136,14.648 C28.237,14.648 28.340,14.650 28.438,14.667 C29.015,14.765 29.173,15.013 28.995,15.576 C28.714,16.460 28.168,17.196 27.634,17.936 C27.063,18.726 26.453,19.488 25.887,20.283 C25.367,21.008 25.408,21.374 26.054,22.004 C26.054,22.004 26.054,22.004 26.054,22.004 Z" id="path-1" class="cls-4" fill-rule="evenodd"/>
  </g>
</svg>
