<svg xmlns="http://www.w3.org/2000/svg" width="210.666" height="84" viewBox="0 0 2194 875" shape-rendering="geometricPrecision" text-rendering="geometricPrecision" image-rendering="optimizeQuality" fill-rule="evenodd" clip-rule="evenodd"><defs><style>.fil0{fill:#7e5299;fill-rule:nonzero}</style></defs><path class="fil0" d="M1697 833c31 0 59-13 79-33s33-48 33-79-13-59-33-79-48-33-79-33-59 13-79 33-33 48-33 79 13 59 33 79 48 33 79 33zM393 111v271h291V111H393zm-33 271V111H145c-22 0-33 0-36 2-2 1-2 11-2 29v157c0 6 1 10 5 16 6 8 18 20 41 40 31 27 44 27 55 27h152zm358-271v271h305V111H718zm338 0v271h296V111h-296zm1105-5V70c-19-9-47-15-83-20-21-3-44-5-69-6 29 24 51 62 72 119l88 245c7 20 14 39 18 59 5 20 8 40 8 61v260h-369c-7 14-16 27-27 38-26 26-63 43-103 43s-77-16-103-43c-11-11-20-24-27-38H697c-7 14-16 27-27 38-26 26-63 43-103 43s-77-16-103-43c-11-11-20-24-27-38H8V81c0-22 7-41 22-54C43 15 62 8 87 8h1825c67 0 124 3 169 9 47 6 82 16 104 29l8 5v56h-33zm-265-66H87c-16 0-27 4-34 10S42 66 42 79v411h19l4 125H42v50h390c7-18 18-34 32-47 26-26 63-43 103-43s77 16 103 43c13 13 24 30 32 47h860c7-18 18-34 32-48 26-26 63-43 103-43s77 16 103 43c13 13 24 30 32 48h330v-50h-28c-16 0-28-41-38-55h66v-33c0-18-3-35-7-53s-11-37-17-55l-88-245c-19-52-38-86-63-106-23-19-52-27-89-27zm-511 71v271h270c9 0 16 0 23 1V111h-293zm327 281c14 6 26 15 41 29l37 38c14 14 21 21 27 23 7 2 18 2 38 2h244c12 0-16-1-16-2-4-13-10-31-16-48l-28-77-49-135c-18-49-35-78-56-94-20-15-44-19-78-19h-147v281zm-57 24H208c-18 0-37 0-77-35-25-22-38-35-46-46-9-13-11-22-11-35V143c0-28 1-43 13-54 11-10 27-11 58-11h1714c40 0 71 5 98 26 26 20 46 53 67 109l49 135 28 77c6 17 13 36 16 50 7 26 5 44-16 44h-244c-24 0-37 0-49-4-15-5-23-13-41-32l-37-38c-12-12-23-19-33-24-11-4-24-5-41-5zM568 755c9 0 18-4 24-10s10-15 10-24-4-18-10-24-14-10-24-10c-9 0-18 4-24 10s-10 14-10 24c0 9 4 18 10 24s15 10 24 10zm47 14c-12 12-29 20-47 20s-35-8-47-20-20-29-20-47 8-35 20-47 29-20 47-20 35 8 47 20 20 29 20 47-8 35-20 47zm-47 65c31 0 59-13 79-33s33-48 33-79-13-59-33-79-48-33-79-33-59 13-79 33-33 48-33 79 13 59 33 79 48 33 79 33zm-142-80c-2-10-3-21-3-32 0-8 1-15 2-22H44v54h383zm286-54c1 7 2 15 2 22 0 11-1 22-3 32h845c-2-10-3-21-3-32 0-7 1-15 2-22H714zm1450 0h-321c1 7 2 15 2 22 0 11-1 22-3 32h323v-54zm-465 56c9 0 18-4 24-10s10-15 10-24-4-18-10-24-14-10-24-10c-9 0-18 4-24 10s-10 14-10 24c0 9 4 18 10 24s14 10 24 10zm47 14c-12 12-29 20-47 20-19 0-35-8-47-20s-20-29-20-47 8-35 20-47 29-20 47-20 35 8 47 20 20 29 20 47-8 35-20 47z" id="Слой_x0020_1"/></svg>