<svg xmlns="http://www.w3.org/2000/svg" width="209.333" height="63.118" viewBox="0 0 2181 657" xmlns:xlink="http://www.w3.org/1999/xlink" shape-rendering="geometricPrecision" text-rendering="geometricPrecision" image-rendering="optimizeQuality" fill-rule="evenodd" clip-rule="evenodd"><defs><style>.fil0{fill:#7e5299;fill-rule:nonzero}</style><clipPath id="id0" clip-rule="nonzero"><path d="M0 655h2186V-6H0v661z"/></clipPath></defs><g id="Слой_x0020_1"><g clip-path="url(#id0)"><image transform="matrix(799.95 0 0 599.962 -868403 -189145)" x="1090" y="315" width="14" height="14" xlink:href="p1a7qe314p7ve1tgck2u100l1n917_Images\p1a7qe314p7ve1tgck2u100l1n917_ImgID1.png"/></g><path class="fil0" d="M384 617c36 0 69-15 92-38 24-24 38-56 38-92s-15-69-38-92c-24-24-56-38-92-38s-69 15-92 38c-24 24-38 56-38 92s15 69 38 92c24 24 56 38 92 38zm490-100v-52l-327-1c1 7 2 15 2 22 0 10-1 20-3 29l328 1zm0-85V266H499c-15 0-26-3-35-8s-14-12-17-21c-2-8-1-17 3-26 5-12 16-26 34-40 57-47 89-72 116-86 29-15 51-16 86-16h715c36 0 52 0 72 8 15 6 30 17 58 37 10 7 21 15 30 22 78 55 68 72 51 101-8 14-13 21-28 25-12 3-28 4-59 4h-265v167l435 2c8-25 22-47 40-65 30-30 71-48 116-48s86 18 116 48c18 18 32 41 40 66l135 1v-38c0-5-1-10-1-15h-47c-23 0-43-36-57-57h74l-2-2c-21-23-50-41-82-48-50-8-93-15-137-22-47-8-94-15-139-22-25-4-55-29-91-60-15-12-30-26-48-39-123-95-126-95-189-95H647c-58 0-94 29-159 81-5 4-10 8-23 19-21 17-40 33-57 48-38 32-65 56-82 56H109c-9 0-15 2-20 6-4 3-6 9-7 17l-4 22h53v37l-63 25-6 34-1 3-2 3-16 28v97h181c-2-9-2-18-2-27 0-45 18-86 48-116s71-48 116-48 86 18 116 48c17 17 30 37 38 60l335 1zm0-199V103H686c-30 0-49 1-71 13-24 12-55 36-110 82-13 11-21 20-24 28-1 2-1 3-1 4h1c3 2 10 3 18 3h375zm33-130v131h319V103H907zm0 164v166l319 1V267H907zm0 199v52l319 1v-52l-319-1zm352-363v131h265c29 0 43 0 50-2 3-1 5-4 9-10 7-13 12-20-41-57-15-10-23-16-30-22-26-18-40-29-51-34-13-6-27-6-59-6h-142zm0 364v52l430 2c-2-11-4-22-4-34 0-6 0-12 1-18l-428-2zm882 4l-128-1c1 5 1 11 1 16 0 12-1 25-4 36h132v-52zm-291 57c11 0 22-5 29-12s12-18 12-29-5-22-12-29-18-12-29-12-22 5-29 12-12 18-12 29 5 22 12 29 18 12 29 12zm53 12c-13 13-32 22-53 22s-39-8-53-22c-13-13-22-32-22-53s8-39 22-53c13-13 32-22 53-22s39 8 53 22c13 13 22 32 22 53s-8 39-22 53zM384 528c11 0 22-5 29-12s12-18 12-29-5-22-12-29-18-12-29-12-22 5-29 12-12 18-12 29 5 22 12 29 18 12 29 12zm53 12c-13 13-32 22-53 22s-39-8-53-22c-13-13-22-32-22-53s8-39 22-53c13-13 32-22 53-22s39 8 53 22c13 13 22 32 22 53s-8 39-22 53zm1414 78c36 0 69-15 92-38 24-24 38-56 38-92s-15-69-38-92c-24-24-56-38-92-38s-69 15-92 38c-24 24-38 56-38 92s15 69 38 92c24 24 56 38 92 38zm116-15c-30 30-71 48-116 48s-86-18-116-48c-14-14-25-30-34-49l-1164-5c-8 20-21 38-36 53-30 30-71 48-116 48s-86-18-116-48c-16-16-28-34-36-55H9V407l2-4 17-30 19-115c2-16 8-28 18-37s23-14 40-14h218c4 0 28-20 60-48 17-15 37-31 58-48 3-2 13-10 23-19C534 35 574 3 644 3h776c73 0 78 0 209 102 17 13 34 27 49 40 32 27 59 50 75 52 50 8 94 15 139 22 47 8 94 15 138 22h1c39 9 74 31 99 58 27 29 43 64 43 97v156h-176c-8 17-19 33-33 47zm59-326z"/></g></svg>