<svg xmlns="http://www.w3.org/2000/svg" width="209.333" height="78.666" viewBox="0 0 2181 819" shape-rendering="geometricPrecision" text-rendering="geometricPrecision" image-rendering="optimizeQuality" fill-rule="evenodd" clip-rule="evenodd"><defs><style>.fil0{fill:#7e5299;fill-rule:nonzero}</style></defs><path class="fil0" d="M425 781c36 0 68-15 92-38 23-24 38-56 38-92s-15-68-38-92c-23-23-56-38-92-38s-68 15-92 38c-23 23-38 56-38 92s15 68 38 92c23 23 56 38 92 38zm212-117v-67h-57c6 17 9 35 9 54 0 4 0 9-1 13h49zm0-100V338l-465-17h-2c-6 0-12-1-18-2-25-4-45-16-38-59 1-6 4-27 7-46 11-71 16-106 31-127 18-23 40-23 85-22h28l1003-1c36 0 72 9 108 24 35 15 70 34 104 56 19 12 39 25 61 39 36 23 76 48 114 73 39 25 35 34 19 67-1 2-1 3-3 6l-3 6c-13 29-19 41-63 39l-459-17v207h546c7-10 14-20 23-29 30-30 70-48 115-48s86 18 115 48c9 9 16 18 23 29h171v-41c0-15-2-31-6-46h-76c-27 0-52-44-69-69h108c-18-20-42-36-73-48l-237-59c-6-1-166-104-271-171l-42-27c-34-21-68-39-102-50-31-11-63-17-94-17L162 37c-14 0-23 2-30 7-6 4-10 11-13 20-18 67-33 145-42 224-1 8-2 17-3 25h23l5 144H63c-1 28-2 54-2 79v5l-3 4-11 17h240c7-10 14-20 23-29 30-30 70-48 115-48s86 18 115 48c9 9 16 18 23 29h73zm0-259V99H237c-34-1-51-1-58 9-10 13-15 46-25 112-1 9-3 18-7 46-3 16 3 20 10 21 4 1 9 1 14 1h2l464 17zm33-206v207l442 16V98H670zm0 241v224h442V356l-442-16zm0 258v67h442v-67H670zm476-499v225l460 17c22 1 24-5 31-20l3-6 3-6c6-12 7-15-7-24-41-27-79-51-113-72-23-14-44-28-61-39-33-21-66-40-99-54-32-13-64-21-95-21h-122zm0 499v67h522c0-5-1-9-1-14 0-19 3-37 9-53h-530zm684 94c11 0 21-5 29-12 7-7 12-18 12-29s-5-21-12-29c-7-7-18-12-29-12s-21 5-29 12c-7 7-12 18-12 29s5 21 12 29c7 7 18 12 29 12zm52 12c-13 13-32 22-52 22s-39-8-52-22c-13-13-22-32-22-52s8-39 22-52c13-13 32-22 52-22s39 8 52 22c13 13 22 32 22 52s-8 39-22 52zm-52 77c36 0 68-15 92-38 23-24 38-56 38-92s-15-68-38-92c-23-23-56-38-92-38s-68 15-92 38c-23 23-38 56-38 92s15 68 38 92c23 23 56 38 92 38zm115-14c-30 30-70 48-115 48s-86-18-115-48c-19-19-33-42-41-68l-1092-1c-8 26-22 50-41 69-30 30-70 48-115 48s-86-18-115-48c-19-19-33-42-41-68H6V569l3-4 21-32c0-74 6-161 17-248 10-80 24-160 43-229 5-17 13-30 26-39 12-9 29-13 49-13l1115-1c35 0 70 7 104 18 37 12 73 31 109 54l42 27c103 65 260 166 261 166l238 59h2c46 16 79 43 102 74 26 37 37 80 37 121l1 159v17h-187c-8 26-22 49-41 68zm39-169c6 17 9 35 9 53 0 5 0 10-1 14h147v-68h-155zM424 692c11 0 21-5 29-12 7-7 12-18 12-29s-5-21-12-29c-7-7-18-12-29-12s-21 5-29 12c-7 7-12 18-12 29s5 21 12 29c7 7 18 12 29 12zm52 12c-13 13-32 22-52 22s-39-8-52-22c-13-13-22-32-22-52s8-39 22-52c13-13 32-22 52-22s39 8 52 22c13 13 22 32 22 52s-8 39-22 52zm-215-39c0-5-1-9-1-14 0-19 3-37 9-54H36v67h224z" id="Слой_x0020_1"/></svg>