<svg xmlns="http://www.w3.org/2000/svg" width="207.118" height="77.48" viewBox="0 0 2157 807" xmlns:xlink="http://www.w3.org/1999/xlink" shape-rendering="geometricPrecision" text-rendering="geometricPrecision" image-rendering="optimizeQuality" fill-rule="evenodd" clip-rule="evenodd"><defs><style>.fil0{fill:#7e5299;fill-rule:nonzero}</style><clipPath id="id0" clip-rule="nonzero"><path d="M3 799h2164V-4H3v803z"/></clipPath></defs><g id="Слой_x0020_1"><g clip-path="url(#id0)"><image transform="matrix(799.95 0 0 599.962 -860620 -233951)" x="1079" y="390" width="14" height="14" xlink:href="p1a7qe314p1tsrcjd1f7lf9515v16_Images\p1a7qe314p1tsrcjd1f7lf9515v16_ImgID1.png"/></g><path class="fil0" d="M442 768c48 0 92-20 124-51 32-32 51-76 51-124s-20-92-51-124c-32-32-76-51-124-51s-92 20-124 51c-32 32-51 76-51 124s20 92 51 124c32 32 76 51 124 51zm500-130v-78l-294-2c2 11 3 23 3 34 0 15-2 29-5 43l295 2zm0-111V283l-437-22h-1c-10-1-24-9-33-19-5-5-8-12-10-18-2-8-2-16 1-25 4-8 11-16 23-21 58-25 119-51 179-71 61-20 120-34 171-34h209c49 0 104 14 160 36 54 21 110 48 161 75 4 2 7 4 10 6 41 23 63 35 40 76-10 18-16 27-32 33-13 5-30 4-63 3l-347-17v243l562 3c10-33 28-62 52-85 38-38 90-61 148-61s110 23 148 61c24 24 42 54 52 88l184 1v-54c0-6-1-13-2-19h-67c-30 0-56-47-74-75h103l-6-6c-28-30-67-55-110-65l-370-58c-31-5-86-34-153-69-120-63-282-147-401-147H808c-101 0-218 50-336 100-20 9-41 17-64 27-24 9-45 17-67 22s-46 8-74 8l-167 1-10 64h62v48l-74 29-11 69-1 4-3 4-30 37v102l201 78c-3-13-4-27-4-41 0-58 23-110 61-148s90-61 148-61 110 23 148 61c22 22 40 50 50 80l302 2zm0-277V107H836c-48 0-103 13-161 32-58 20-119 45-176 70-4 2-5 3-6 4v1c1 2 2 4 4 6 4 4 8 7 10 8l435 21zm33-143v145l348 17c28 1 43 1 51-2 5-2 8-7 14-17 7-12-5-18-27-31-4-2-7-4-11-6-50-26-104-53-158-73-52-20-103-33-148-33h-70zm0 454v78l558 4c-4-16-6-32-6-49 0-10 1-19 2-29l-554-3zm1146 7l-177-1c1 9 2 17 2 26 0 18-2 35-7 52h8l174-36v-41zm-385 84c16 0 31-7 41-17 11-11 17-25 17-41s-7-31-17-41c-11-11-25-17-41-17s-31 7-41 17c-11 11-17 25-17 41s7 31 17 41c11 11 25 17 41 17zm65 7c-17 17-40 27-65 27s-48-10-65-27-27-40-27-65 10-48 27-65 40-27 65-27 48 10 65 27 27 40 27 65-10 48-27 65zm-1359-7c16 0 31-7 41-17 11-11 17-25 17-41s-7-31-17-41c-11-11-25-17-41-17s-31 7-41 17c-11 11-17 25-17 41s7 31 17 41c11 11 25 17 41 17zm65 7c-17 17-40 27-65 27s-48-10-65-27-27-40-27-65 10-48 27-65 40-27 65-27 48 10 65 27 27 40 27 65-10 48-27 65zm1229 110c48 0 92-20 124-51 32-32 51-76 51-124s-20-92-51-124c-32-32-76-51-124-51s-92 20-124 51c-32 32-51 76-51 124s20 92 51 124c32 32 76 51 124 51zm148-28c-38 38-90 61-148 61s-110-23-148-61c-19-19-34-40-44-65l-908-6c-11 27-27 51-47 71-38 38-90 61-148 61s-110-23-148-61c-21-21-37-46-48-73h-15l-3-1-214-84-11-4V442l4-5 31-38 33-220 2-14h14l182-1c26 0 47-2 67-7s40-11 63-20c20-8 41-17 63-26C583 59 703 8 810 8h231c127 0 292 87 416 151 64 34 117 61 143 66l371 58h1c49 12 94 39 127 74 34 36 55 81 55 123v157l-13 3-189 39h-25c-10 23-25 44-43 62z"/></g></svg>