<svg xmlns="http://www.w3.org/2000/svg" width="200" height="88.063" viewBox="0 0 2083 917" shape-rendering="geometricPrecision" text-rendering="geometricPrecision" image-rendering="optimizeQuality" fill-rule="evenodd" clip-rule="evenodd"><defs><style>.fil0{fill:#7e5299;fill-rule:nonzero}</style></defs><path class="fil0" d="M431 874c50 0 96-20 129-54 33-33 54-79 54-129s-20-96-54-129c-33-33-79-54-129-54s-96 20-129 54c-33 33-54 79-54 129s20 96 54 129c33 33 79 54 129 54zm504-599l-38-170H688l-96 151 343 18zm-3-170l38 172 375 20c3 0 5 0 7-1 2-2 3-6 3-15 0-27-5-31-14-38l-5-4c-89-65-183-134-237-134H933zm411 225l-781-42-29-2 15-24L664 79l5-8h428c65 0 163 72 257 141l5 4c18 14 28 21 28 65 0 20-6 32-14 40-9 8-20 10-31 10zM516 105l-195 1-101 131 182 10 114-141zM313 73l238-1h35l-22 27-141 175-5 7h-8l-212-11c-4 0-8-2-11-4s-6-5-7-9c-1-3-2-6-2-10s2-9 5-13l1-1L302 80l5-6h8zm-61 498L38 526v63l182 60c6-29 17-55 32-78zM38 492l237 50 3-3c39-39 93-63 153-63s114 24 153 63c8 8 15 16 22 25h922c7-9 14-18 22-26 39-39 93-63 153-63s114 24 153 63c8 8 15 17 22 26h169v-46c0-16-2-33-6-50h-85c-30 0-56-47-74-75h124c-20-26-47-45-82-52l-332-49h-1c-53-10-131-64-212-120-95-66-196-134-254-134l-843 1-154 187c-15 18-26 38-33 69-2 7-3 15-4 23h91l-62 91H85v37l-6 5-38 34v6zm1665 271c20 0 38-8 51-21s21-31 21-51-8-38-21-51-31-21-51-21-38 8-51 21-21 31-21 51 8 38 21 51 31 21 51 21zm75 3c-19 19-45 31-75 31-29 0-55-12-75-31-19-19-31-45-31-75 0-29 12-55 31-75 19-19 45-31 75-31 29 0 55 12 75 31 19 19 31 45 31 75 0 29-12 55-31 75zm-75 142c-60 0-114-24-153-63-36-36-59-84-63-138l-839-1c-3 54-27 103-63 139-39 39-93 63-153 63s-114-24-153-63-63-93-63-153v-8L16 618l-11-4V471l6-5 38-33c0-65 4-109 12-143 8-37 21-61 40-83L260 14l5-6h8l851-1c69 0 173 72 273 140 78 54 154 106 199 115l332 48h1c47 9 83 36 108 71 30 41 44 94 44 139l-1 171v17h-161c-4 54-27 102-63 138-39 39-93 63-153 63zm-215-235c2-27 9-52 21-75H627c11 23 18 48 21 74l840 1zm410-75c11 23 18 48 21 75h128v-75h-148zm-324 223c33 33 79 54 129 54s96-20 129-54c33-33 54-79 54-129s-20-96-54-129c-33-33-79-54-129-54s-96 20-129 54c-33 33-54 79-54 129s20 96 54 129zM432 764c20 0 38-8 51-21s21-31 21-51-8-38-21-51-31-21-51-21-38 8-51 21-21 31-21 51 8 38 21 51 31 21 51 21zm74 3c-19 19-45 31-74 31s-55-12-75-31c-19-19-31-45-31-75 0-29 12-55 31-74s45-31 75-31c29 0 55 12 74 31s31 45 31 74-12 55-31 75z" id="Слой_x0020_1"/></svg>