<svg xmlns="http://www.w3.org/2000/svg" preserveAspectRatio="xMidYMid" width="22" height="20" viewBox="0 0 22 20"><defs><style>.cls-3{fill:#fff}</style></defs><g id="basketsvg"><path d="M21.539 3.418a2.122 2.122 0 0 0-1.62-.727H6.399c-.387 0-.755.106-1.074.295L4.634.647a.917.917 0 0 0-.882-.648H2.701.696c-.382 0-.696.3-.696.674v.071c0 .37.309.674.696.674h2.628l1.342 4.594 1.846 6.339c-1.05.255-1.828 1.176-1.828 2.269 0 1.237.996 2.255 2.256 2.334a2.242 2.242 0 0 0-.128.943c.091 1.119 1.033 2.022 2.188 2.096 1.378.093 2.529-.968 2.529-2.281 0-.265-.046-.516-.132-.754h2.765a2.23 2.23 0 0 0-.118 1.018c.127 1.084 1.05 1.938 2.178 2.017 1.378.093 2.533-.964 2.533-2.281 0-1.273-1.091-2.291-2.401-2.291H7.117c-.45 0-.832-.339-.85-.771-.018-.458.359-.832.827-.832H18.114c.937 0 1.755-.621 1.983-1.502l1.837-7.163a1.922 1.922 0 0 0-.395-1.735zm-5.144 13.536c.427 0 .778.339.778.753a.769.769 0 0 1-.778.753.768.768 0 0 1-.778-.753c0-.414.346-.753.778-.753zm-7.227 0c.428 0 .778.339.778.753s-.35.753-.778.753a.768.768 0 0 1-.777-.753c0-.414.345-.753.777-.753zM6.312 6.003l-.355-1.211a.414.414 0 0 1 .078-.388.452.452 0 0 1 .364-.176h1.482l.405 1.78H6.312v-.005zm.446 1.533h1.874l.373 1.648h-1.77l-.477-1.648zm1.724 4.74a.456.456 0 0 1-.442-.326l-.359-1.233H9.35l.355 1.555H8.482v.004zm3.961 0h-1.119l-.355-1.555h1.469v1.555h.005zm0-3.092h-1.819l-.373-1.648h2.192v1.648zm0-3.181H9.905L9.5 4.224h2.943v1.779zm2.838 6.273H14.03v-1.555h1.587l-.336 1.555zm.673-3.092H14.03V7.536h2.283l-.359 1.648zM14.03 6.003V4.224h3.002l-.387 1.779H14.03zm4.534 5.938a.454.454 0 0 1-.446.339H16.9l.341-1.554h1.637l-.314 1.215zm.705-2.757h-1.696l.359-1.648h1.76l-.423 1.648zm1.128-4.41l-.314 1.225h-1.819l.387-1.78h1.3c.196 0 .31.106.36.172a.42.42 0 0 1 .086.383z" id="path-1" class="cls-3" fill-rule="evenodd"/></g></svg>