<svg xmlns="http://www.w3.org/2000/svg" preserveAspectRatio="xMidYMid" width="19" height="18" viewBox="0 0 19 18"><defs><style>.cls-2{fill:#000}</style></defs><path d="M17.991 10.142a.992.992 0 0 1-.977.857H5.844l.164 1h10.019c.545 0 .987.447.987 1 0 .553-.442 1-.987 1H5.171a.93.93 0 0 1-.362-.075c-.041-.015-.073-.044-.11-.066a.863.863 0 0 1-.191-.128c-.036-.035-.063-.074-.094-.112a1.107 1.107 0 0 1-.118-.179c-.025-.049-.037-.099-.053-.152-.014-.042-.037-.079-.045-.124L2.363 2H.978A.993.993 0 0 1-.008.999c0-.553.441-1 .986-1h2.221a.99.99 0 0 1 .972.836L4.364 2H18a.98.98 0 0 1 .746.345c.187.217.272.508.231.796l-.986 7.001zm-4.925-1.143h3.092l.281-2h-3.373v2zm-4.933-5h-3.44l.333 2.03a.469.469 0 0 1 .146-.03h2.961v-2zm0 3H5.186l.329 2h2.618v-2zm3.947-3H9.119v2h2.961v-2zm0 3H9.119v2h2.961v-2zm.986-3v2h3.516l.281-2h-3.797zm-6.414 11a1.49 1.49 0 0 1 1.481 1.5c0 .828-.663 1.5-1.481 1.5a1.49 1.49 0 0 1-1.48-1.5c0-.828.663-1.5 1.48-1.5zm8.881 0a1.49 1.49 0 0 1 1.481 1.5c0 .828-.663 1.5-1.481 1.5a1.49 1.49 0 0 1-1.48-1.5c0-.828.663-1.5 1.48-1.5z" id="path-1" class="cls-2" fill-rule="evenodd"/></svg>