<svg xmlns="http://www.w3.org/2000/svg" preserveAspectRatio="xMidYMid" width="38" height="38" viewBox="0 0 38 38"><defs><style>.cls-3{opacity:.3}.cls-3,.cls-4{fill:#fff}</style></defs><g id="facebooksvg"><rect id="rect-1" class="cls-3" width="38" height="38" rx="19" ry="19"/><path d="M23.327 10.363l-2.245-.004c-2.522 0-4.152 1.67-4.152 4.253v1.961h-2.257a.353.353 0 0 0-.353.353v2.841c0 .194.158.352.353.352h2.257v7.169c0 .194.158.352.353.352h2.945a.353.353 0 0 0 .353-.352v-7.169h2.639a.353.353 0 0 0 .353-.352l.001-2.841a.353.353 0 0 0-.353-.353h-2.64v-1.662c0-.799.191-1.205 1.234-1.205h1.512a.353.353 0 0 0 .353-.353v-2.638a.353.353 0 0 0-.353-.352z" id="path-1" class="cls-4" fill-rule="evenodd"/></g></svg>