<svg xmlns="http://www.w3.org/2000/svg" preserveAspectRatio="xMidYMid" width="9" height="12" viewBox="0 0 9 12"><defs><style>.cls-2{fill:#fff}</style></defs><path d="M8.361 4.845h-.228V3.751c0-2.024-1.567-3.715-3.526-3.752a7.633 7.633 0 0 0-.214 0C2.434.036.866 1.727.866 3.751v1.094H.638c-.352 0-.638.372-.638.831v5.489c0 .459.286.834.638.834h7.723c.352 0 .639-.375.639-.834V5.676c0-.459-.287-.831-.639-.831zm-3.138 3.57v1.658a.35.35 0 0 1-.34.351h-.766a.35.35 0 0 1-.341-.351V8.415a.999.999 0 0 1-.284-.71c0-.526.396-.978.901-.999.053-.002.16-.002.214 0 .504.021.901.473.901.999a1 1 0 0 1-.285.71zm1.406-3.57H4.607h-.214H2.37V3.751c0-1.206.956-2.203 2.13-2.203 1.173 0 2.129.997 2.129 2.203v1.094z" id="path-1" class="cls-2" fill-rule="evenodd"/></svg>