<svg xmlns="http://www.w3.org/2000/svg" preserveAspectRatio="xMidYMid" width="16" height="17" viewBox="0 0 16 17"><defs><style>.cls-2{fill:#cfcfcf}</style></defs><path d="M15.75 15.483l-3.943-4.207a6.95 6.95 0 0 0 1.569-4.413c0-3.785-3-6.864-6.689-6.864-3.688 0-6.689 3.079-6.689 6.864 0 3.785 3.001 6.864 6.689 6.864a6.504 6.504 0 0 0 3.832-1.242l3.974 4.239a.854.854 0 0 0 1.233.025.912.912 0 0 0 .024-1.266zM6.687 1.79c2.727 0 4.944 2.275 4.944 5.073 0 2.797-2.217 5.073-4.944 5.073-2.726 0-4.944-2.276-4.944-5.073 0-2.798 2.218-5.073 4.944-5.073z" id="path-1" class="cls-2" fill-rule="evenodd"/></svg>