<svg xmlns="http://www.w3.org/2000/svg" preserveAspectRatio="xMidYMid" width="13" height="13" viewBox="0 0 13 13"><defs><style>.cls-2{fill:#fff}</style></defs><path d="M.161 10.742a.339.339 0 0 1 .103-.217l5.182-5.12a3.833 3.833 0 0 1-.312-1.519c0-1.038.41-2.015 1.152-2.749A3.929 3.929 0 0 1 9.067-.001c1.052 0 2.038.404 2.782 1.138a3.856 3.856 0 0 1 0 5.496 3.93 3.93 0 0 1-2.781 1.14 3.959 3.959 0 0 1-1.538-.309L5.827 9.147a.36.36 0 0 1-.265.103l-.927-.032.03.919a.355.355 0 0 1-.366.363l-.931-.032.033.918a.354.354 0 0 1-.368.363l-.929-.031.031.918a.354.354 0 0 1-.354.363l-.039-.001-1.424-.157a.352.352 0 0 1-.316-.381l.159-1.718zm9.381-7.326a1.128 1.128 0 0 0 1.582 0 1.094 1.094 0 0 0 0-1.562 1.128 1.128 0 0 0-1.582 0 1.096 1.096 0 0 0 0 1.562zm-8.165 7.442a.267.267 0 0 0 .378 0l4.41-4.357a3.653 3.653 0 0 1-.336-.413l-4.452 4.398a.26.26 0 0 0 0 .372z" id="path-1" class="cls-2" fill-rule="evenodd"/></svg>