<svg xmlns="http://www.w3.org/2000/svg" preserveAspectRatio="xMidYMid" width="38" height="38" viewBox="0 0 38 38"><defs><style>.cls-3{opacity:.3}.cls-3,.cls-4{fill:#fff}</style></defs><g id="vksvg"><rect id="rect-1" class="cls-3" width="38" height="38" rx="19" ry="19"/><path d="M26.054 22.004c.716.7 1.473 1.358 2.115 2.128.284.342.553.695.759 1.092.291.565.027 1.186-.479 1.22l-3.147-.002c-.812.068-1.459-.259-2.003-.814-.436-.444-.839-.916-1.258-1.375a2.984 2.984 0 0 0-.567-.503c-.429-.279-.802-.193-1.048.255-.249.455-.306.96-.331 1.468-.033.74-.257.935-1.002.969-1.59.075-3.1-.165-4.502-.968-1.237-.707-2.196-1.706-3.03-2.836-1.625-2.202-2.869-4.621-3.987-7.108-.252-.56-.068-.861.55-.871a85.524 85.524 0 0 1 3.081-.002c.417.007.693.246.854.64.556 1.366 1.235 2.665 2.088 3.869.228.321.459.641.789.867.365.25.643.167.814-.24a2.69 2.69 0 0 0 .182-.811c.081-.95.092-1.898-.051-2.844-.088-.591-.42-.973-1.01-1.085-.3-.057-.256-.169-.11-.34.253-.296.491-.481.965-.481h3.556c.56.111.684.362.761.926l.003 3.95c-.006.218.109.865.502 1.009.314.103.521-.149.71-.348.852-.904 1.459-1.972 2.002-3.077.241-.487.448-.992.649-1.496.149-.375.382-.559.804-.551l3.423.003c.101 0 .204.002.302.019.577.098.735.346.557.909-.281.884-.827 1.62-1.361 2.36-.571.79-1.181 1.552-1.747 2.347-.52.725-.479 1.091.167 1.721z" id="path-1" class="cls-4" fill-rule="evenodd"/></g></svg>