<?xml version="1.0" encoding="UTF-8"?>
<!DOCTYPE svg PUBLIC "-//W3C//DTD SVG 1.1//EN" "http://www.w3.org/Graphics/SVG/1.1/DTD/svg11.dtd">
<!-- Creator: CorelDRAW X6 -->
<svg xmlns="http://www.w3.org/2000/svg" xml:space="preserve" width="2.19444in" height="0.875in" version="1.1" style="shape-rendering:geometricPrecision; text-rendering:geometricPrecision; image-rendering:optimizeQuality; fill-rule:evenodd; clip-rule:evenodd"
viewBox="0 0 2194 875"
 xmlns:xlink="http://www.w3.org/1999/xlink">
 <defs>
  <style type="text/css">
   <![CDATA[
    .fil0 {fill:#7E5299;fill-rule:nonzero}
   ]]>
  </style>
 </defs>
 <g id="Слой_x0020_1">
  <metadata id="CorelCorpID_0Corel-Layer"/>
  <path class="fil0" d="M1697 833c31,0 59,-13 79,-33 20,-20 33,-48 33,-79 0,-31 -13,-59 -33,-79 -20,-20 -48,-33 -79,-33 -31,0 -59,13 -79,33 -20,20 -33,48 -33,79 0,31 13,59 33,79 20,20 48,33 79,33zm-1304 -722l0 271 291 0 0 -271 -291 0zm-33 271l0 -271 -215 0c-22,0 -33,0 -36,2 -2,1 -2,11 -2,29l0 157 0 0c0,6 1,10 5,16 6,8 18,20 41,40 31,27 44,27 55,27l0 0 3 0 0 0 149 0zm358 -271l0 271 305 0 0 -271 -305 0zm338 0l0 271 296 0 0 -271 -296 0zm1105 -5l0 -36c-19,-9 -47,-15 -83,-20 -21,-3 -44,-5 -69,-6 29,24 51,62 72,119l88 245c7,20 14,39 18,59 5,20 8,40 8,61l0 243 0 17 -17 0 -352 0c-7,14 -16,27 -27,38 -26,26 -63,43 -103,43 -40,0 -77,-16 -103,-43 -11,-11 -20,-24 -27,-38l-869 0c-7,14 -16,27 -27,38 -26,26 -63,43 -103,43 -40,0 -77,-16 -103,-43 -11,-11 -20,-24 -27,-38l-412 0 -17 0 0 -17 0 -690c0,-22 7,-41 22,-54 13,-12 32,-19 57,-19l1806 0 2 0 17 0c67,0 124,3 169,9 47,6 82,16 104,29l8 5 0 10 0 46 -33 0zm-265 -66l-44 0 0 0 -1765 0c-16,0 -27,4 -34,10 -7,6 -11,16 -11,29l0 411 19 0 4 125 -23 0 0 50 390 0c7,-18 18,-34 32,-47 26,-26 63,-43 103,-43 40,0 77,16 103,43 13,13 24,30 32,47l860 0c7,-18 18,-34 32,-48 26,-26 63,-43 103,-43 40,0 77,16 103,43 13,13 24,30 32,48l330 0 0 -50 -28 0c-16,0 -28,-41 -38,-55l66 0 0 -33c0,-18 -3,-35 -7,-53 -4,-18 -11,-37 -17,-55l-88 -245c-19,-52 -38,-86 -63,-106 -23,-19 -52,-27 -89,-27zm-511 71l0 271 270 0c9,0 16,0 23,1l0 -272 -293 0zm327 281c14,6 26,15 41,29l0 0 37 38 0 0 0 0c14,14 21,21 27,23 7,2 18,2 38,2 11,0 7,0 16,0l0 0 228 0 0 0c12,0 -16,-1 -16,-2 -4,-13 -10,-31 -16,-48l-28 -77 -49 -135c-18,-49 -35,-78 -56,-94 -20,-15 -44,-19 -78,-19l-147 0 0 281zm-57 24l-1444 0 0 0 -3 0c-18,0 -37,0 -77,-35 -25,-22 -38,-35 -46,-46 -9,-13 -11,-22 -11,-35l0 0 0 -157c0,-28 1,-43 13,-54 11,-10 27,-11 58,-11l1714 0c40,0 71,5 98,26 26,20 46,53 67,109l49 135 28 77 0 0c6,17 13,36 16,50 7,26 5,44 -16,44l0 0 -228 0 0 0c-20,0 -14,0 -16,0 -24,0 -37,0 -49,-4 -15,-5 -23,-13 -41,-32l0 0 0 0 -37 -38c-12,-12 -23,-19 -33,-24 -11,-4 -24,-5 -41,-5zm-1087 339c9,0 18,-4 24,-10 6,-6 10,-15 10,-24 0,-9 -4,-18 -10,-24 -6,-6 -14,-10 -24,-10 -9,0 -18,4 -24,10 -6,6 -10,14 -10,24 0,9 4,18 10,24 6,6 15,10 24,10zm47 14c-12,12 -29,20 -47,20 -18,0 -35,-8 -47,-20l0 0c-12,-12 -20,-29 -20,-47 0,-18 8,-35 20,-47l0 0c12,-12 29,-20 47,-20 18,0 35,8 47,20l0 0c12,12 20,29 20,47 0,18 -8,35 -20,47l0 0zm-47 65c31,0 59,-13 79,-33 20,-20 33,-48 33,-79 0,-31 -13,-59 -33,-79 -20,-20 -48,-33 -79,-33 -31,0 -59,13 -79,33 -20,20 -33,48 -33,79 0,31 13,59 33,79 20,20 48,33 79,33zm-142 -80c-2,-10 -3,-21 -3,-32 0,-8 1,-15 2,-22l-381 0 0 54 383 0zm286 -54c1,7 2,15 2,22 0,11 -1,22 -3,32l845 0c-2,-10 -3,-21 -3,-32 0,-7 1,-15 2,-22l-841 0zm1450 0l-321 0c1,7 2,15 2,22 0,11 -1,22 -3,32l323 0 0 -54zm-465 56c9,0 18,-4 24,-10 6,-6 10,-15 10,-24 0,-9 -4,-18 -10,-24l0 0c-6,-6 -14,-10 -24,-10 -9,0 -18,4 -24,10 -6,6 -10,14 -10,24 0,9 4,18 10,24 6,6 14,10 24,10zm47 14c-12,12 -29,20 -47,20 -19,0 -35,-8 -47,-20 -12,-12 -20,-29 -20,-47 0,-18 8,-35 20,-47l0 0c12,-12 29,-20 47,-20 18,0 35,8 47,20l0 0c12,12 20,29 20,47 0,18 -8,35 -20,47l0 0z"/>
 </g>
</svg>
