<?xml version="1.0" encoding="UTF-8"?>
<!DOCTYPE svg PUBLIC "-//W3C//DTD SVG 1.1//EN" "http://www.w3.org/Graphics/SVG/1.1/DTD/svg11.dtd">
<!-- Creator: CorelDRAW X6 -->
<svg xmlns="http://www.w3.org/2000/svg" xml:space="preserve" width="2.18055in" height="0.65748in" version="1.1" style="shape-rendering:geometricPrecision; text-rendering:geometricPrecision; image-rendering:optimizeQuality; fill-rule:evenodd; clip-rule:evenodd"
viewBox="0 0 2181 657"
 xmlns:xlink="http://www.w3.org/1999/xlink">
 <defs>
  <style type="text/css">
   <![CDATA[
    .fil0 {fill:#7E5299;fill-rule:nonzero}
   ]]>
  </style>
   <clipPath id="id0" style="clip-rule:nonzero">
    <path d="M0 655l2186 0 0 -661 -2186 0 0 661z"/>
   </clipPath>
 </defs>
 <g id="Слой_x0020_1">
  <metadata id="CorelCorpID_0Corel-Layer"/>
  <g style="clip-path:url(#id0)">
   <image transform="matrix(799.95 0 0 599.962 -868403 -189145)" x="1090" y="315" width="14" height="14" xlink:href="p1a7qe314p7ve1tgck2u100l1n917_Images\p1a7qe314p7ve1tgck2u100l1n917_ImgID1.png"/>
  </g>
  <path class="fil0" d="M384 617c36,0 69,-15 92,-38 24,-24 38,-56 38,-92 0,-36 -15,-69 -38,-92 -24,-24 -56,-38 -92,-38 -36,0 -69,15 -92,38 -24,24 -38,56 -38,92 0,36 15,69 38,92 24,24 56,38 92,38zm490 -100l0 -52 -327 -1c1,7 2,15 2,22 0,10 -1,20 -3,29l328 1zm0 -85l0 -166 -375 0 0 0c-15,0 -26,-3 -35,-8 -9,-5 -14,-12 -17,-21l0 0c-2,-8 -1,-17 3,-26 5,-12 16,-26 34,-40 57,-47 89,-72 116,-86 29,-15 51,-16 86,-16l0 0 715 0 0 0 0 0c36,0 52,0 72,8 15,6 30,17 58,37 10,7 21,15 30,22 78,55 68,72 51,101l0 0c-8,14 -13,21 -28,25 -12,3 -28,4 -59,4l0 0 -265 0 0 167 435 2c8,-25 22,-47 40,-65 30,-30 71,-48 116,-48 45,0 86,18 116,48 18,18 32,41 40,66l135 1 0 -38 0 0c0,-5 -1,-10 -1,-15l-47 0c-23,0 -43,-36 -57,-57l74 0 -2 -2c-21,-23 -50,-41 -82,-48 -50,-8 -93,-15 -137,-22 -47,-8 -94,-15 -139,-22l0 0c-25,-4 -55,-29 -91,-60 -15,-12 -30,-26 -48,-39 -123,-95 -126,-95 -189,-95l-7 0 -769 0 0 0c-58,0 -94,29 -159,81 -5,4 -10,8 -23,19 -21,17 -40,33 -57,48l0 0c-38,32 -65,56 -82,56l0 0 -217 0c-9,0 -15,2 -20,6 -4,3 -6,9 -7,17l0 0 -4 22 53 0 0 37 -63 25 -6 34 -1 3 -2 3 -16 28 0 97 181 0c-2,-9 -2,-18 -2,-27 0,-45 18,-86 48,-116 30,-30 71,-48 116,-48 45,0 86,18 116,48 17,17 30,37 38,60l335 1zm0 -199l0 -130 -188 0 0 0c-30,0 -49,1 -71,13 -24,12 -55,36 -110,82 -13,11 -21,20 -24,28 -1,2 -1,3 -1,4l0 0c0,0 0,0 1,0 3,2 10,3 18,3l0 0 375 0zm33 -130l0 131 319 0 0 -131 -319 0zm0 164l0 166 319 1 0 -167 -319 0zm0 199l0 52 319 1 0 -52 -319 -1zm352 -363l0 131 265 0 0 0c29,0 43,0 50,-2 3,-1 5,-4 9,-10l0 0c7,-13 12,-20 -41,-57 -15,-10 -23,-16 -30,-22 -26,-18 -40,-29 -51,-34 -13,-6 -27,-6 -59,-6l0 0 0 0 -142 0zm0 364l0 52 430 2c-2,-11 -4,-22 -4,-34 0,-6 0,-12 1,-18l-428 -2zm882 4l-128 -1c1,5 1,11 1,16 0,12 -1,25 -4,36l3 0 129 0 0 -52zm-291 57c11,0 22,-5 29,-12l0 0c7,-7 12,-18 12,-29 0,-11 -5,-22 -12,-29l0 0c-7,-7 -18,-12 -29,-12 -11,0 -22,5 -29,12 -7,7 -12,18 -12,29 0,11 5,22 12,29 7,7 18,12 29,12zm53 12c-13,13 -32,22 -53,22 -21,0 -39,-8 -53,-22 -13,-13 -22,-32 -22,-53 0,-21 8,-39 22,-53 13,-13 32,-22 53,-22 21,0 39,8 53,22l0 0c13,13 22,32 22,53 0,21 -8,39 -22,53l0 0zm-1519 -12c11,0 22,-5 29,-12 7,-7 12,-18 12,-29 0,-11 -5,-22 -12,-29 -7,-7 -18,-12 -29,-12 -11,0 -22,5 -29,12 -7,7 -12,18 -12,29 0,11 5,22 12,29 7,7 18,12 29,12zm53 12c-13,13 -32,22 -53,22 -21,0 -39,-8 -53,-22 -13,-13 -22,-32 -22,-53 0,-21 8,-39 22,-53 13,-13 32,-22 53,-22 21,0 39,8 53,22l0 0c13,13 22,32 22,53 0,21 -8,39 -22,53l0 0zm1414 78c36,0 69,-15 92,-38 24,-24 38,-56 38,-92 0,-36 -15,-69 -38,-92 -24,-24 -56,-38 -92,-38 -36,0 -69,15 -92,38 -24,24 -38,56 -38,92 0,36 15,69 38,92 24,24 56,38 92,38zm116 -15c-30,30 -71,48 -116,48 -45,0 -86,-18 -116,-48 -14,-14 -25,-30 -34,-49l-1164 -5c-8,20 -21,38 -36,53 -30,30 -71,48 -116,48 -45,0 -86,-18 -116,-48 -16,-16 -28,-34 -36,-55l-7 0 -200 0 -17 0 0 -17 0 -118 0 -5 2 -4 17 -30 19 -115c2,-16 8,-28 18,-37 10,-9 23,-14 40,-14l1 0 217 0 0 0c4,0 28,-20 60,-48l0 0c17,-15 37,-31 58,-48 3,-2 13,-10 23,-19 70,-57 110,-89 180,-89l0 0 769 0 7 0c73,0 78,0 209,102 17,13 34,27 49,40 32,27 59,50 75,52l0 0c50,8 94,15 139,22 47,8 94,15 138,22l1 0c39,9 74,31 99,58 27,29 43,64 43,97l0 0 0 139 0 17 -17 0 -145 0 0 0 -14 0c-8,17 -19,33 -33,47zm59 -326l0 0 0 0z"/>
 </g>
</svg>
