<svg id="Слой_1" data-name="Слой 1" xmlns="http://www.w3.org/2000/svg" viewBox="0 0 318.18 36.98"><defs><style>.cls-1{fill:#fff;}</style></defs><title>limberi logo svg new</title><path class="cls-1" d="M19.55,62.18H41.26a1.79,1.79,0,0,0,1.22-.36,2.65,2.65,0,0,0,.67-1.29H44v9.13h-.83a2.65,2.65,0,0,0-.67-1.29A1.79,1.79,0,0,0,41.26,68H10.18v-.83a2.64,2.64,0,0,0,1.29-.67,1.8,1.8,0,0,0,.36-1.22V35.39a1.8,1.8,0,0,0-.36-1.22,2.65,2.65,0,0,0-1.29-.67v-.83h11v.83a2.45,2.45,0,0,0-1.29.66,1.85,1.85,0,0,0-.36,1.23Z" transform="translate(-10.18 -32.68)"/><path class="cls-1" d="M55.63,41.65V65.34A1.84,1.84,0,0,0,56,66.56a2.72,2.72,0,0,0,1.29.71V68H47v-.72a2.45,2.45,0,0,0,1.28-.67,1.86,1.86,0,0,0,.38-1.24V41.66a1.8,1.8,0,0,0-.36-1.22,2.8,2.8,0,0,0-1.29-.7V39H57.28v.72a2.58,2.58,0,0,0-1.29.69A1.85,1.85,0,0,0,55.63,41.65Z" transform="translate(-10.18 -32.68)"/><path class="cls-1" d="M80.92,68,70.35,48.93v16.4a1.85,1.85,0,0,0,.36,1.23,2.73,2.73,0,0,0,1.29.71V68H62.38v-.72a2.45,2.45,0,0,0,1.28-.67A1.86,1.86,0,0,0,64,65.36V41.66a1.85,1.85,0,0,0-.36-1.23,2.59,2.59,0,0,0-1.29-.69V39H74.63v.72a1.49,1.49,0,0,0-1.22,1.48,5.46,5.46,0,0,0,.88,2.59l7.23,13.11L88.8,44A7,7,0,0,0,90,41.09q0-1.06-1.27-1.35V39h11.93v.72a2.58,2.58,0,0,0-1.29.69,1.85,1.85,0,0,0-.36,1.23V65.34a1.9,1.9,0,0,0,.36,1.24,2.51,2.51,0,0,0,1.29.7V68H90.46v-.72a2.45,2.45,0,0,0,1.28-.67,1.86,1.86,0,0,0,.38-1.24V48.93Z" transform="translate(-10.18 -32.68)"/><path class="cls-1" d="M137.9,49.5q6,2.25,6,8.33a9.13,9.13,0,0,1-3.47,7.58,11.15,11.15,0,0,1-4.08,2,22.92,22.92,0,0,1-5.73.61H106.43v-.83a2.64,2.64,0,0,0,1.29-.67,1.8,1.8,0,0,0,.36-1.22V35.39a1.8,1.8,0,0,0-.36-1.22,2.65,2.65,0,0,0-1.29-.67v-.83h23.91a23.93,23.93,0,0,1,5.54.52A9.57,9.57,0,0,1,139.55,35,8.48,8.48,0,0,1,142.68,42,7.71,7.71,0,0,1,137.9,49.5Zm-22.1-2.77h13.53q3.08,0,4.3-.91A3.76,3.76,0,0,0,135,42.61a3.67,3.67,0,0,0-1.29-3.17,7.65,7.65,0,0,0-4.37-.94H115.79Zm0,15.45h13.09a10.27,10.27,0,0,0,5.25-1,4.16,4.16,0,0,0,1.84-3.8,4.2,4.2,0,0,0-1.84-3.8q-1.58-1-5.25-1H115.79Z" transform="translate(-10.18 -32.68)"/><path class="cls-1" d="M157.1,55.68v7.06h18.4a1.87,1.87,0,0,0,1.23-.36,2.55,2.55,0,0,0,.69-1.3h.72v8.57h-.72a2.45,2.45,0,0,0-.67-1.28A1.86,1.86,0,0,0,175.5,68h-27v-.72a2.45,2.45,0,0,0,1.28-.67,1.86,1.86,0,0,0,.38-1.24V41.66a1.8,1.8,0,0,0-.36-1.22,2.8,2.8,0,0,0-1.29-.7V39H174.7a1.89,1.89,0,0,0,1.25-.36,2.57,2.57,0,0,0,.69-1.29h.7v8.57h-.7a2.55,2.55,0,0,0-.69-1.3,1.91,1.91,0,0,0-1.25-.36H157.1v6.37H168a1.85,1.85,0,0,0,1.23-.36A2.74,2.74,0,0,0,170,49h.7v8.36H170a2.62,2.62,0,0,0-.69-1.29,1.87,1.87,0,0,0-1.25-.37Z" transform="translate(-10.18 -32.68)"/><path class="cls-1" d="M191.1,56.1v9.24a1.84,1.84,0,0,0,.36,1.23,2.73,2.73,0,0,0,1.29.71V68H182.51v-.72a2.45,2.45,0,0,0,1.28-.67,1.86,1.86,0,0,0,.38-1.24V41.66a1.8,1.8,0,0,0-.36-1.22,2.81,2.81,0,0,0-1.29-.7V39h19a31.91,31.91,0,0,1,5.64.38,9.77,9.77,0,0,1,3.47,1.36q3.13,2,3.13,6.68a7.55,7.55,0,0,1-1.93,5.5q-1.93,2-6.22,2.86l5.49,7.64a17,17,0,0,0,2.39,2.88,4.25,4.25,0,0,0,2,1V68H203.32v-.72q1.35-.36,1.35-1.16a3.62,3.62,0,0,0-.83-1.73L198,56.1Zm0-5.25h10.46a9,9,0,0,0,3.52-.52,2.72,2.72,0,0,0,1.6-2.77A2.81,2.81,0,0,0,205.56,45a7.89,7.89,0,0,0-4-.72H191.1Z" transform="translate(-10.18 -32.68)"/><path class="cls-1" d="M227.59,41.65V65.34a1.84,1.84,0,0,0,.36,1.23,2.72,2.72,0,0,0,1.29.71V68H219v-.72a2.45,2.45,0,0,0,1.28-.67,1.86,1.86,0,0,0,.38-1.24V41.66a1.8,1.8,0,0,0-.36-1.22,2.81,2.81,0,0,0-1.29-.7V39h10.25v.72a2.58,2.58,0,0,0-1.29.69A1.84,1.84,0,0,0,227.59,41.65Z" transform="translate(-10.18 -32.68)"/><path class="cls-1" d="M239.94,60.13a4.08,4.08,0,0,1,3,1.24,4.14,4.14,0,0,1,1.23,3,4,4,0,0,1-1.25,3,4.24,4.24,0,0,1-7.23-3,4,4,0,0,1,1.23-3A4.19,4.19,0,0,1,239.94,60.13Z" transform="translate(-10.18 -32.68)"/><path class="cls-1" d="M282.71,49.5q6,2.25,6,8.33a9.13,9.13,0,0,1-3.47,7.58,11.15,11.15,0,0,1-4.08,2,22.92,22.92,0,0,1-5.73.61H251.25v-.83a2.64,2.64,0,0,0,1.29-.67,1.79,1.79,0,0,0,.36-1.22V35.39a1.79,1.79,0,0,0-.36-1.22,2.65,2.65,0,0,0-1.29-.67v-.83h23.91a23.91,23.91,0,0,1,5.54.52A9.57,9.57,0,0,1,284.37,35,8.48,8.48,0,0,1,287.5,42,7.71,7.71,0,0,1,282.71,49.5Zm-22.1-2.77h13.54q3.08,0,4.3-.91a3.76,3.76,0,0,0,1.37-3.21,3.66,3.66,0,0,0-1.29-3.17,7.64,7.64,0,0,0-4.37-.94H260.61Zm0,15.45h13.1a10.28,10.28,0,0,0,5.25-1,4.16,4.16,0,0,0,1.84-3.8,4.2,4.2,0,0,0-1.84-3.8q-1.58-1-5.25-1h-13.1Z" transform="translate(-10.18 -32.68)"/><path class="cls-1" d="M312.63,53.21V65.28A1.77,1.77,0,0,0,313,66.5a2.69,2.69,0,0,0,1.29.67V68H303.21v-.83a2.85,2.85,0,0,0,1.32-.67,1.72,1.72,0,0,0,.39-1.22V53.21L293.51,37.15a16.48,16.48,0,0,0-2.32-2.78,3.81,3.81,0,0,0-2-.87v-.83h13.95v.83q-1.73.28-1.73,1.6a5.6,5.6,0,0,0,1.06,2l6.37,9.45,6.55-9.45a5.06,5.06,0,0,0,1.06-2.07,1.34,1.34,0,0,0-.47-1,2.4,2.4,0,0,0-1.27-.56v-.83h13.66v.83a3.81,3.81,0,0,0-2,.87A16.43,16.43,0,0,0,324,37.15Z" transform="translate(-10.18 -32.68)"/></svg>