<?xml version="1.0" encoding="UTF-8"?>
<!DOCTYPE svg PUBLIC "-//W3C//DTD SVG 1.1//EN" "http://www.w3.org/Graphics/SVG/1.1/DTD/svg11.dtd">
<!-- Creator: CorelDRAW X6 -->
<svg xmlns="http://www.w3.org/2000/svg" xml:space="preserve" width="2.18055in" height="0.819441in" version="1.1" style="shape-rendering:geometricPrecision; text-rendering:geometricPrecision; image-rendering:optimizeQuality; fill-rule:evenodd; clip-rule:evenodd"
viewBox="0 0 2181 819"
 xmlns:xlink="http://www.w3.org/1999/xlink">
 <defs>
  <style type="text/css">
   <![CDATA[
    .fil0 {fill:#7E5299;fill-rule:nonzero}
   ]]>
  </style>
 </defs>
 <g id="Слой_x0020_1">
  <metadata id="CorelCorpID_0Corel-Layer"/>
  <path class="fil0" d="M425 781c36,0 68,-15 92,-38 23,-24 38,-56 38,-92 0,-36 -15,-68 -38,-92 -23,-23 -56,-38 -92,-38 -36,0 -68,15 -92,38 -23,23 -38,56 -38,92 0,36 15,68 38,92 23,23 56,38 92,38zm212 -117l0 -67 -57 0c6,17 9,35 9,54 0,4 0,9 -1,13l49 0zm0 -100l0 -226 -465 -17 0 0 -2 0c-6,0 -12,-1 -18,-2 -25,-4 -45,-16 -38,-59 1,-6 4,-27 7,-46 11,-71 16,-106 31,-127 18,-23 40,-23 85,-22 6,0 14,0 28,0l0 0 1003 -1 0 0c36,0 72,9 108,24 35,15 70,34 104,56 19,12 39,25 61,39 36,23 76,48 114,73 39,25 35,34 19,67 -1,2 -1,3 -3,6l0 0 -3 6 0 0c-13,29 -19,41 -63,39l-459 -17 0 207 546 0c7,-10 14,-20 23,-29 30,-30 70,-48 115,-48 45,0 86,18 115,48 9,9 16,18 23,29l171 0 0 -41 0 0c0,-15 -2,-31 -6,-46l-76 0c-27,0 -52,-44 -69,-69l108 0c-18,-20 -42,-36 -73,-48l-237 -59 0 0c-6,-1 -166,-104 -271,-171l-42 -27c-34,-21 -68,-39 -102,-50 -31,-11 -63,-17 -94,-17l0 0 -1115 1 0 0c-14,0 -23,2 -30,7 -6,4 -10,11 -13,20l0 0c-18,67 -33,145 -42,224 -1,8 -2,17 -3,25l23 0 5 144 -39 0c-1,28 -2,54 -2,79l0 5 -3 4 -11 17 240 0c7,-10 14,-20 23,-29 30,-30 70,-48 115,-48 45,0 86,18 115,48 9,9 16,18 23,29l73 0zm0 -259l0 -206 -372 0 0 0c-6,0 -18,0 -28,0 -34,-1 -51,-1 -58,9 -10,13 -15,46 -25,112 -1,9 -3,18 -7,46 -3,16 3,20 10,21 4,1 9,1 14,1l2 0 0 0 464 17zm33 -206l0 207 442 16 0 -224 -442 0zm0 241l0 224 442 0 0 -208 -442 -16zm0 258l0 67 442 0 0 -67 -442 0zm476 -499l0 225 460 17c22,1 24,-5 31,-20l0 0 3 -6 0 0 3 -6c6,-12 7,-15 -7,-24 -41,-27 -79,-51 -113,-72 -23,-14 -44,-28 -61,-39 -33,-21 -66,-40 -99,-54 -32,-13 -64,-21 -95,-21l0 0 -122 0zm0 499l0 67 522 0c0,-5 -1,-9 -1,-14 0,-19 3,-37 9,-53l-530 0zm684 94c11,0 21,-5 29,-12 7,-7 12,-18 12,-29 0,-11 -5,-21 -12,-29 -7,-7 -18,-12 -29,-12 -11,0 -21,5 -29,12 -7,7 -12,18 -12,29 0,11 5,21 12,29 7,7 18,12 29,12zm52 12c-13,13 -32,22 -52,22 -20,0 -39,-8 -52,-22 -13,-13 -22,-32 -22,-52 0,-20 8,-39 22,-52 13,-13 32,-22 52,-22 20,0 39,8 52,22 13,13 22,32 22,52 0,20 -8,39 -22,52zm-52 77c36,0 68,-15 92,-38 23,-24 38,-56 38,-92 0,-36 -15,-68 -38,-92 -23,-23 -56,-38 -92,-38 -36,0 -68,15 -92,38 -23,23 -38,56 -38,92 0,36 15,68 38,92 23,23 56,38 92,38zm115 -14c-30,30 -70,48 -115,48 -45,0 -86,-18 -115,-48 -19,-19 -33,-42 -41,-68l-1092 -1c-8,26 -22,50 -41,69 -30,30 -70,48 -115,48 -45,0 -86,-18 -115,-48 -19,-19 -33,-42 -41,-68l-247 0 -17 0 0 -17 0 -108 0 -5 3 -4 21 -32c0,-74 6,-161 17,-248 10,-80 24,-160 43,-229l0 0c5,-17 13,-30 26,-39 12,-9 29,-13 49,-13l0 0 1115 -1 0 0c35,0 70,7 104,18 37,12 73,31 109,54l42 27c103,65 260,166 261,166l0 0 238 59 1 0 1 0c46,16 79,43 102,74 26,37 37,80 37,121l0 0 1 159 0 17 -17 0 -170 0c-8,26 -22,49 -41,68zm39 -169c6,17 9,35 9,53 0,5 0,10 -1,14l147 0 0 -68 -155 0zm-1560 94c11,0 21,-5 29,-12 7,-7 12,-18 12,-29 0,-11 -5,-21 -12,-29 -7,-7 -18,-12 -29,-12 -11,0 -21,5 -29,12 -7,7 -12,18 -12,29 0,11 5,21 12,29 7,7 18,12 29,12zm52 12c-13,13 -32,22 -52,22 -20,0 -39,-8 -52,-22 -13,-13 -22,-32 -22,-52 0,-20 8,-39 22,-52 13,-13 32,-22 52,-22 20,0 39,8 52,22 13,13 22,32 22,52 0,20 -8,39 -22,52zm-215 -39c0,-5 -1,-9 -1,-14 0,-19 3,-37 9,-54l-233 0 0 67 224 0z"/>
 </g>
</svg>
