<?xml version="1.0" encoding="UTF-8"?>
<!DOCTYPE svg PUBLIC "-//W3C//DTD SVG 1.1//EN" "http://www.w3.org/Graphics/SVG/1.1/DTD/svg11.dtd">
<!-- Creator: CorelDRAW X6 -->
<svg xmlns="http://www.w3.org/2000/svg" xml:space="preserve" width="2.15748in" height="0.807087in" version="1.1" style="shape-rendering:geometricPrecision; text-rendering:geometricPrecision; image-rendering:optimizeQuality; fill-rule:evenodd; clip-rule:evenodd"
viewBox="0 0 2157 807"
 xmlns:xlink="http://www.w3.org/1999/xlink">
 <defs>
  <style type="text/css">
   <![CDATA[
    .fil0 {fill:#7E5299;fill-rule:nonzero}
   ]]>
  </style>
   <clipPath id="id0" style="clip-rule:nonzero">
    <path d="M3 799l2164 0 0 -803 -2164 0 0 803z"/>
   </clipPath>
 </defs>
 <g id="Слой_x0020_1">
  <metadata id="CorelCorpID_0Corel-Layer"/>
  <g style="clip-path:url(#id0)">
   <image transform="matrix(799.95 0 0 599.962 -860620 -233951)" x="1079" y="390" width="14" height="14" xlink:href="p1a7qe314p1tsrcjd1f7lf9515v16_Images\p1a7qe314p1tsrcjd1f7lf9515v16_ImgID1.png"/>
  </g>
  <path class="fil0" d="M442 768c48,0 92,-20 124,-51 32,-32 51,-76 51,-124 0,-48 -20,-92 -51,-124 -32,-32 -76,-51 -124,-51 -48,0 -92,20 -124,51 -32,32 -51,76 -51,124 0,48 20,92 51,124 32,32 76,51 124,51zm500 -130l0 -78 -294 -2c2,11 3,23 3,34 0,15 -2,29 -5,43l295 2zm0 -111l0 -244 -437 -22 -1 0c-10,-1 -24,-9 -33,-19 -5,-5 -8,-12 -10,-18 -2,-8 -2,-16 1,-25 4,-8 11,-16 23,-21 58,-25 119,-51 179,-71 61,-20 120,-34 171,-34l0 0 209 0 0 0c49,0 104,14 160,36 54,21 110,48 161,75l0 0c4,2 7,4 10,6 41,23 63,35 40,76 -10,18 -16,27 -32,33 -13,5 -30,4 -63,3l0 0 -347 -17 0 243 562 3c10,-33 28,-62 52,-85 38,-38 90,-61 148,-61 58,0 110,23 148,61 24,24 42,54 52,88l184 1 0 -54 0 0c0,-6 -1,-13 -2,-19l-67 0c-30,0 -56,-47 -74,-75l103 0c-2,-2 -4,-4 -6,-6 -28,-30 -67,-55 -110,-65l-370 -58 0 0c-31,-5 -86,-34 -153,-69 -120,-63 -282,-147 -401,-147l0 0 -231 0 0 0c-101,0 -218,50 -336,100 -20,9 -41,17 -64,27l0 0c-24,9 -45,17 -67,22 -22,5 -46,8 -74,8l0 0 -167 1 -10 64 62 0 0 48 -74 29 -11 69 -1 4 -3 4 -30 37 0 102 201 78c-3,-13 -4,-27 -4,-41 0,-58 23,-110 61,-148 38,-38 90,-61 148,-61 58,0 110,23 148,61 22,22 40,50 50,80l302 2zm0 -277l0 -143 -106 0 0 0c-48,0 -103,13 -161,32 -58,20 -119,45 -176,70 -4,2 -5,3 -6,4 0,0 0,1 0,1 1,2 2,4 4,6 4,4 8,7 10,8l0 0 435 21zm33 -143l0 145 348 17 0 0c28,1 43,1 51,-2 5,-2 8,-7 14,-17 7,-12 -5,-18 -27,-31 -4,-2 -7,-4 -11,-6l0 0c-50,-26 -104,-53 -158,-73 -52,-20 -103,-33 -148,-33l0 0 -70 0zm0 454l0 78 558 4c-4,-16 -6,-32 -6,-49 0,-10 1,-19 2,-29l-554 -3zm1146 7l-177 -1c1,9 2,17 2,26 0,18 -2,35 -7,52l8 0 174 -36 0 -41zm-385 84c16,0 31,-7 41,-17 11,-11 17,-25 17,-41 0,-16 -7,-31 -17,-41 -11,-11 -25,-17 -41,-17 -16,0 -31,7 -41,17l0 0c-11,11 -17,25 -17,41 0,16 7,31 17,41 11,11 25,17 41,17zm65 7c-17,17 -40,27 -65,27 -25,0 -48,-10 -65,-27 -17,-17 -27,-40 -27,-65 0,-25 10,-48 27,-65l0 0 0 0c17,-17 40,-27 65,-27 25,0 48,10 65,27 17,17 27,40 27,65 0,25 -10,48 -27,65l0 0zm-1359 -7c16,0 31,-7 41,-17 11,-11 17,-25 17,-41 0,-16 -7,-31 -17,-41l0 0c-11,-11 -25,-17 -41,-17 -16,0 -31,7 -41,17 -11,11 -17,25 -17,41 0,16 7,31 17,41 11,11 25,17 41,17zm65 7c-17,17 -40,27 -65,27 -25,0 -48,-10 -65,-27l0 0c-17,-17 -27,-40 -27,-65 0,-25 10,-48 27,-65 17,-17 40,-27 65,-27 25,0 48,10 65,27l0 0 0 0c17,17 27,40 27,65 0,25 -10,48 -27,65zm1229 110c48,0 92,-20 124,-51 32,-32 51,-76 51,-124 0,-48 -20,-92 -51,-124 -32,-32 -76,-51 -124,-51 -48,0 -92,20 -124,51 -32,32 -51,76 -51,124 0,48 20,92 51,124 32,32 76,51 124,51zm148 -28c-38,38 -90,61 -148,61 -58,0 -110,-23 -148,-61 -19,-19 -34,-40 -44,-65l-908 -6c-11,27 -27,51 -47,71 -38,38 -90,61 -148,61 -58,0 -110,-23 -148,-61 -21,-21 -37,-46 -48,-73l-12 0 -3 0 -3 -1 -214 -84 -11 -4 0 -11 0 -120 0 -6 4 -5 31 -38 33 -220 2 -14 14 0 182 -1 0 0c26,0 47,-2 67,-7 20,-5 40,-11 63,-20l0 0c20,-8 41,-17 63,-26 122,-52 242,-103 349,-103l0 0 231 0 0 0c127,0 292,87 416,151 64,34 117,61 143,66l0 0 371 58 1 0c49,12 94,39 127,74 34,36 55,81 55,123l0 0 0 143 0 14 -13 3 -189 39 -2 0 -2 0 -21 0c-10,23 -25,44 -43,62z"/>
 </g>
</svg>
