<?xml version="1.0" encoding="UTF-8"?>
<!DOCTYPE svg PUBLIC "-//W3C//DTD SVG 1.1//EN" "http://www.w3.org/Graphics/SVG/1.1/DTD/svg11.dtd">
<!-- Creator: CorelDRAW X6 -->
<svg xmlns="http://www.w3.org/2000/svg" xml:space="preserve" width="2.22222in" height="0.88189in" version="1.1" style="shape-rendering:geometricPrecision; text-rendering:geometricPrecision; image-rendering:optimizeQuality; fill-rule:evenodd; clip-rule:evenodd"
viewBox="0 0 2222 882"
 xmlns:xlink="http://www.w3.org/1999/xlink">
 <defs>
  <style type="text/css">
   <![CDATA[
    .fil0 {fill:#7E5299;fill-rule:nonzero}
   ]]>
  </style>
   <clipPath id="id0">
    <path d="M0 878l2224 0 0 -886 -2224 0 0 886z"/>
   </clipPath>
 </defs>
 <g id="Слой_x0020_1">
  <metadata id="CorelCorpID_0Corel-Layer"/>
  <g style="clip-path:url(#id0)">
   <image transform="matrix(164.989 0 0 84.7633 -179904 -37566.7)" x="1111" y="427" width="14" height="14" xlink:href="p1a7qe314p1edl17p016a51pbc137v9_Images\p1a7qe314p1edl17p016a51pbc137v9_ImgID1.png"/>
  </g>
  <path class="fil0" d="M466 730c15,0 29,-6 40,-16l0 0c10,-10 16,-24 16,-40 0,-15 -6,-29 -16,-40 -10,-10 -24,-16 -40,-16 -15,0 -29,6 -40,16l0 0c-10,10 -16,24 -16,40 0,15 6,29 16,40l0 0c10,10 24,16 40,16zm0 113c47,0 89,-19 120,-50 31,-31 50,-73 50,-120 0,-47 -19,-89 -50,-120 -31,-31 -73,-50 -120,-50 -47,0 -89,19 -120,50 -31,31 -50,73 -50,120 0,47 19,89 50,120 31,31 73,50 120,50zm1482 0c47,0 89,-19 120,-50 31,-31 50,-73 50,-120 0,-47 -19,-89 -50,-120 -31,-31 -73,-50 -120,-50 -47,0 -89,19 -120,50 -31,31 -50,73 -50,120 0,47 19,89 50,120 31,31 73,50 120,50zm-1250 -128l0 -29c0,-72 -24,-136 -69,-181 -41,-42 -100,-68 -175,-68 -43,0 -86,13 -125,33 -49,25 -95,61 -131,98 -21,21 -43,45 -63,69 -23,27 -45,55 -62,78l194 0c-3,-13 -4,-27 -4,-41 0,-56 23,-107 59,-143 37,-37 87,-59 143,-59 56,0 107,23 143,59 37,37 59,87 59,143 0,14 -1,28 -4,41l34 0zm-420 33l-237 0 -32 0 1 -1 0 -4 0 -1 0 -1c11,-115 52,-218 119,-298 64,-76 154,-131 266,-157l2 0 2 0c4,0 19,-36 32,-68 6,-13 11,-26 16,-36 14,-28 29,-51 46,-71 17,-20 36,-36 56,-50 31,-22 71,-36 127,-44 55,-8 126,-11 222,-11l0 0c39,0 100,1 157,2 41,1 80,3 107,6l4 0c64,7 129,14 171,102 10,20 18,41 27,59 18,41 32,73 33,73l0 0 478 0 0 0c18,0 31,1 44,8 13,7 23,19 36,40l1 1 35 74c23,-13 54,-27 76,-27 21,0 24,34 24,49 0,10 -1,30 -9,41 22,12 42,27 59,44 50,51 78,123 79,203l0 17 -17 0 -51 0c-6,45 -27,86 -58,117 -37,37 -87,59 -143,59 -56,0 -107,-23 -143,-59 -19,-19 -35,-42 -45,-68l-1105 0 0 -2c-10,27 -26,51 -46,71 -37,37 -87,59 -143,59 -56,0 -107,-23 -143,-59 -19,-19 -35,-43 -45,-69zm-227 -59c17,-23 37,-48 59,-74 21,-25 43,-49 65,-71 39,-39 87,-77 140,-104 44,-22 92,-37 140,-37 84,0 151,30 199,78 50,52 78,124 78,204l0 0 0 29 211 0 0 -401 -369 0 -25 0 10 -23 8 -19c8,-18 16,-37 22,-51 12,-25 25,-47 40,-65 15,-19 31,-35 50,-47 31,-21 94,-32 165,-38 105,-8 230,-5 294,-1 38,2 68,5 94,17 27,13 47,35 64,77 18,44 29,78 38,102 4,11 7,20 9,25l9 23 -24 0 -350 0 0 401 58 0 0 0 209 0c184,0 310,-95 421,-179 92,-70 175,-132 276,-132 9,0 17,0 26,1l-1 -2c-4,-3 -6,-6 -6,-7 0,-1 1,-2 2,-3l-37 -79c-9,-15 -15,-23 -22,-26 -6,-3 -15,-4 -28,-4l0 0 -478 0 0 0c-23,0 -41,-41 -64,-93 -8,-18 -17,-38 -26,-58 -34,-72 -90,-78 -144,-83l-4 0c-27,-3 -65,-5 -104,-6 -57,-2 -118,-2 -156,-2l0 0c-94,0 -164,3 -217,11 -51,8 -86,20 -113,39 -18,13 -34,27 -50,44 -15,18 -29,38 -41,64 -5,10 -10,22 -15,34 -17,40 -36,86 -61,88 -104,24 -187,75 -246,145 -52,62 -87,138 -104,224zm1897 41c15,0 29,-6 40,-16 10,-10 16,-24 16,-40 0,-15 -6,-29 -16,-40 -10,-10 -24,-16 -40,-16 -15,0 -29,6 -40,16 -10,10 -16,24 -16,40 0,15 6,29 16,40l0 0c10,10 24,16 40,16zm63 7c-16,16 -39,26 -63,26 -25,0 -47,-10 -63,-26l0 0c-16,-16 -26,-39 -26,-63 0,-25 10,-47 26,-63 16,-16 39,-26 63,-26 25,0 47,10 63,26l0 0c16,16 26,39 26,63 0,25 -10,47 -26,63l0 0zm-583 -22l322 0c-3,-13 -4,-27 -4,-42 0,-56 23,-107 59,-143 37,-37 87,-59 143,-59 56,0 107,23 143,59 35,35 57,83 59,136l32 0c-4,-64 -28,-122 -69,-163 -41,-42 -100,-67 -174,-67 -90,0 -169,59 -256,126 -74,56 -155,117 -255,153zm-486 -434l0 -181c-33,1 -66,2 -97,5 -66,5 -123,15 -149,32 -16,10 -30,24 -42,40 -13,17 -25,36 -36,59 -6,12 -13,28 -20,45l344 0zm33 -181l0 181 326 0 -1 -4c-8,-23 -20,-57 -37,-100 -13,-33 -28,-50 -47,-59 -20,-10 -47,-12 -81,-14 -37,-2 -96,-4 -159,-4zm-446 637l0 0c-16,16 -39,26 -63,26 -25,0 -47,-10 -63,-26l0 0 0 0c-16,-16 -26,-39 -26,-63 0,-25 10,-47 26,-63l0 0c16,-16 39,-26 63,-26 25,0 47,10 63,26 16,16 26,39 26,63 0,25 -10,47 -26,63z"/>
 </g>
</svg>
