<?xml version="1.0" encoding="UTF-8"?>
<!DOCTYPE svg PUBLIC "-//W3C//DTD SVG 1.1//EN" "http://www.w3.org/Graphics/SVG/1.1/DTD/svg11.dtd">
<!-- Creator: CorelDRAW X6 -->
<svg xmlns="http://www.w3.org/2000/svg" xml:space="preserve" width="2.08333in" height="0.917323in" version="1.1" style="shape-rendering:geometricPrecision; text-rendering:geometricPrecision; image-rendering:optimizeQuality; fill-rule:evenodd; clip-rule:evenodd"
viewBox="0 0 2083 917"
 xmlns:xlink="http://www.w3.org/1999/xlink">
 <defs>
  <style type="text/css">
   <![CDATA[
    .fil0 {fill:#7E5299;fill-rule:nonzero}
   ]]>
  </style>
 </defs>
 <g id="Слой_x0020_1">
  <metadata id="CorelCorpID_0Corel-Layer"/>
  <path class="fil0" d="M431 874c50,0 96,-20 129,-54 33,-33 54,-79 54,-129 0,-50 -20,-96 -54,-129 -33,-33 -79,-54 -129,-54 -50,0 -96,20 -129,54 -33,33 -54,79 -54,129 0,50 20,96 54,129 33,33 79,54 129,54zm504 -599l-38 -170 -209 0 -96 151 343 18zm-3 -170l38 172 375 20c3,0 5,0 7,-1 2,-2 3,-6 3,-15 0,-27 -5,-31 -14,-38l0 0 0 0 0 0 -5 -4c-89,-65 -183,-134 -237,-134l0 0 -166 0zm411 225l-781 -42 -29 -2 15 -24 116 -183 5 -8 9 0 419 0 0 0c65,0 163,72 257,141l5 4 0 0 0 0 0 0c18,14 28,21 28,65 0,20 -6,32 -14,40 -9,8 -20,10 -31,10zm-827 -225l-195 1 -101 131 182 10 114 -141zm-203 -32l238 -1 35 0 -22 27 -141 175 -5 7 -8 0 -212 -11c-4,0 -8,-2 -11,-4 -3,-2 -6,-5 -7,-9l0 0c-1,-3 -2,-6 -2,-10 0,-4 2,-9 5,-13l1 -1 118 -153 5 -6 8 0zm-61 498l-214 -45 0 63 182 60c6,-29 17,-55 32,-78zm-214 -79l237 50c1,-1 2,-2 3,-3 39,-39 93,-63 153,-63 60,0 114,24 153,63 8,8 15,16 22,25l922 0c7,-9 14,-18 22,-26 39,-39 93,-63 153,-63 60,0 114,24 153,63 8,8 15,17 22,26l169 0 0 -46 0 0c0,-16 -2,-33 -6,-50l-85 0c-30,0 -56,-47 -74,-75l124 0c-20,-26 -47,-45 -82,-52l0 0 -332 -49 -1 0c-53,-10 -131,-64 -212,-120 -95,-66 -196,-134 -254,-134l0 0 -843 1 -154 187 0 0c-15,18 -26,38 -33,69 -2,7 -3,15 -4,23l91 0 -62 91 -35 0c0,9 0,19 0,29l0 8 -6 5 -38 34 0 6zm1665 271c20,0 38,-8 51,-21 13,-13 21,-31 21,-51 0,-20 -8,-38 -21,-51 -13,-13 -31,-21 -51,-21 -20,0 -38,8 -51,21 -13,13 -21,31 -21,51 0,20 8,38 21,51 13,13 31,21 51,21zm75 3c-19,19 -45,31 -75,31 -29,0 -55,-12 -75,-31 -19,-19 -31,-45 -31,-75 0,-29 12,-55 31,-75 19,-19 45,-31 75,-31 29,0 55,12 75,31 19,19 31,45 31,75 0,29 -12,55 -31,75zm-75 142c-60,0 -114,-24 -153,-63 -36,-36 -59,-84 -63,-138l-839 -1c-3,54 -27,103 -63,139 -39,39 -93,63 -153,63 -60,0 -114,-24 -153,-63 -39,-39 -63,-93 -63,-153 0,-3 0,-5 0,-8l-200 -66 -11 -4 0 -12 0 -123 0 -8 6 -5 38 -33c0,-65 4,-109 12,-143 8,-37 21,-61 40,-83l0 0 159 -193 5 -6 8 0 851 -1 0 0c69,0 173,72 273,140 78,54 154,106 199,115l332 48 1 0c47,9 83,36 108,71 30,41 44,94 44,139l0 0 -1 171 0 17 -17 0 -144 0c-4,54 -27,102 -63,138 -39,39 -93,63 -153,63zm-215 -235c2,-27 9,-52 21,-75l-882 0c11,23 18,48 21,74l840 1zm410 -75c11,23 18,48 21,75l128 0 0 -75 -148 0zm-324 223c33,33 79,54 129,54 50,0 96,-20 129,-54 33,-33 54,-79 54,-129 0,-50 -20,-96 -54,-129 -33,-33 -79,-54 -129,-54 -50,0 -96,20 -129,54 -33,33 -54,79 -54,129 0,50 20,96 54,129zm-1142 -57c20,0 38,-8 51,-21l0 0c13,-13 21,-31 21,-51 0,-20 -8,-38 -21,-51 -13,-13 -31,-21 -51,-21 -20,0 -38,8 -51,21l0 0c-13,13 -21,31 -21,51 0,20 8,38 21,51 13,13 31,21 51,21zm74 3c-19,19 -45,31 -74,31 -29,0 -55,-12 -75,-31 -19,-19 -31,-45 -31,-75 0,-29 12,-55 31,-74l0 0c19,-19 45,-31 75,-31 29,0 55,12 74,31l0 0c19,19 31,45 31,74 0,29 -12,55 -31,75l0 0z"/>
 </g>
</svg>
